<?xml version="1.0" encoding="utf-8"?>
<!-- Generator: Adobe Illustrator 27.6.1, SVG Export Plug-In . SVG Version: 6.00 Build 0)  -->
<svg version="1.1" xmlns="http://www.w3.org/2000/svg" xmlns:xlink="http://www.w3.org/1999/xlink" x="0px" y="0px"
	 viewBox="0 0 1156.91 442.11" style="enable-background:new 0 0 1156.91 442.11;" xml:space="preserve">
<style type="text/css">
	.st0{fill:#FFFFFF;stroke:#CECECE;stroke-width:0.5;stroke-miterlimit:10;}
	.st1{opacity:0.5;fill:url(#SVGID_00000091713728222041734440000013992983467000877958_);}
	.st2{fill:#FFFFFF;}
	.st3{opacity:0.5;fill:url(#SVGID_00000066513397428488919150000012938018052629000639_);}
	.st4{opacity:0.5;fill:url(#SVGID_00000085224275111059780380000000411715003198443948_);}
	.st5{fill:#EEEFF2;}
	.st6{fill:none;stroke:#CECECE;stroke-width:0.5;stroke-miterlimit:10;}
	.st7{fill:#0080C0;}
	.st8{clip-path:url(#SVGID_00000181074547086733860580000017343790199730035091_);}
	.st9{opacity:0.15;}
	.st10{fill:#0081C1;}
	.st11{fill:#E9E9E9;stroke:#C7C7C7;stroke-width:0.5;stroke-miterlimit:10;}
	.st12{fill:#FFFFFF;stroke:#C7C7C7;stroke-width:0.5;stroke-miterlimit:10;}
	.st13{fill:#EAEFF3;}
	.st14{fill:#E9EEF2;}
	.st15{clip-path:url(#SVGID_00000177464707132257443940000005884779336057510530_);fill:#E9EEF2;}
	.st16{clip-path:url(#SVGID_00000177464707132257443940000005884779336057510530_);}
	.st17{clip-path:url(#SVGID_00000168103125302956119390000000857891098363607735_);fill:#FFFFFF;}
	
		.st18{clip-path:url(#SVGID_00000168103125302956119390000000857891098363607735_);fill:none;stroke:#BFCAD6;stroke-width:0.926;stroke-miterlimit:10;}
	.st19{clip-path:url(#SVGID_00000168103125302956119390000000857891098363607735_);fill:#128FC3;}
	.st20{clip-path:url(#SVGID_00000168103125302956119390000000857891098363607735_);fill:#0080B7;}
	.st21{clip-path:url(#SVGID_00000168103125302956119390000000857891098363607735_);fill:#637180;}
	.st22{clip-path:url(#SVGID_00000168103125302956119390000000857891098363607735_);fill:#0F263A;}
	.st23{clip-path:url(#SVGID_00000168103125302956119390000000857891098363607735_);fill:none;stroke:#1D1D1B;stroke-miterlimit:10;}
	.st24{clip-path:url(#SVGID_00000168103125302956119390000000857891098363607735_);fill:#E9EEF2;}
	.st25{clip-path:url(#SVGID_00000168103125302956119390000000857891098363607735_);}
	.st26{clip-path:url(#SVGID_00000050662980616937890240000011580058498939108499_);fill:#ECEDEF;}
	
		.st27{clip-path:url(#SVGID_00000050662980616937890240000011580058498939108499_);fill:none;stroke:#BFCAD6;stroke-width:0.727;stroke-miterlimit:10;}
	.st28{clip-path:url(#SVGID_00000153668854079509558380000009238021420267632545_);fill:#ECEDEF;}
	
		.st29{clip-path:url(#SVGID_00000153668854079509558380000009238021420267632545_);fill:none;stroke:#0080B7;stroke-width:0.727;stroke-miterlimit:10;}
	.st30{clip-path:url(#SVGID_00000057120421064882375750000010677185972472444072_);fill:#ECEDEF;}
	
		.st31{clip-path:url(#SVGID_00000057120421064882375750000010677185972472444072_);fill:none;stroke:#DE555D;stroke-width:0.727;stroke-miterlimit:10;}
	.st32{clip-path:url(#SVGID_00000057120421064882375750000010677185972472444072_);fill:#0080B7;}
	.st33{clip-path:url(#SVGID_00000057120421064882375750000010677185972472444072_);fill:#128FC3;}
	.st34{clip-path:url(#SVGID_00000175297387796718184640000008942013432036037532_);fill:#ECEDEF;}
	.st35{clip-path:url(#SVGID_00000175297387796718184640000008942013432036037532_);fill:#BFCAD6;}
	.st36{clip-path:url(#SVGID_00000175297387796718184640000008942013432036037532_);fill:#0080B7;}
	.st37{clip-path:url(#SVGID_00000175297387796718184640000008942013432036037532_);fill:#DE555D;}
	.st38{clip-path:url(#SVGID_00000175297387796718184640000008942013432036037532_);fill:#FFFFFF;}
	.st39{clip-path:url(#SVGID_00000124130386852118888210000017053699560987237302_);fill:none;stroke:#BFCAD6;stroke-miterlimit:10;}
	.st40{clip-path:url(#SVGID_00000124130386852118888210000017053699560987237302_);fill:#0080B7;}
	.st41{clip-path:url(#SVGID_00000124130386852118888210000017053699560987237302_);fill:#FFFFFF;}
	.st42{clip-path:url(#SVGID_00000124130386852118888210000017053699560987237302_);fill:#128FC3;}
	.st43{clip-path:url(#SVGID_00000124130386852118888210000017053699560987237302_);fill:none;stroke:#128FC3;stroke-miterlimit:10;}
	.st44{clip-path:url(#SVGID_00000090977109468873953610000000279332368728929722_);fill:#0080B7;}
	.st45{clip-path:url(#SVGID_00000090977109468873953610000000279332368728929722_);fill:#637180;}
	.st46{clip-path:url(#SVGID_00000090977109468873953610000000279332368728929722_);fill:none;stroke:#BFCAD6;stroke-miterlimit:10;}
	
		.st47{clip-path:url(#SVGID_00000090977109468873953610000000279332368728929722_);fill:none;stroke:#BFCAD6;stroke-width:0.727;stroke-miterlimit:10;}
	.st48{fill:#637080;}
	.st49{fill:none;stroke:#637080;stroke-width:2;stroke-linecap:round;stroke-linejoin:round;stroke-miterlimit:10;}
	.st50{fill:none;stroke:#0081C1;stroke-width:2;stroke-miterlimit:10;}
	.st51{fill:#1B1C1D;}
	.st52{fill:none;stroke:#1B1C1D;stroke-width:0.25;stroke-linecap:round;stroke-linejoin:round;stroke-miterlimit:10;}
	.st53{fill:none;stroke:#1B1C1D;stroke-width:0.5;stroke-linecap:round;stroke-linejoin:round;stroke-miterlimit:10;}
	.st54{fill:none;stroke:#1B1C1D;stroke-width:0.75;stroke-linecap:round;stroke-linejoin:round;stroke-miterlimit:10;}
	.st55{fill:#D32828;}
	.st56{clip-path:url(#SVGID_00000049198124530721861890000002240357846024660871_);}
	.st57{fill:none;}
	.st58{opacity:0.5;}
	.st59{clip-path:url(#SVGID_00000120556990779173921160000000699552453581080507_);}
	.st60{fill:none;stroke:#637080;stroke-linecap:round;stroke-linejoin:round;}
	.st61{fill:none;stroke:#DA007E;stroke-width:0.5;stroke-miterlimit:10;}
	.st62{clip-path:url(#SVGID_00000019651833258499610270000011760974544177757063_);}
	.st63{clip-path:url(#SVGID_00000120555008553704618040000017208620972403870112_);}
	.st64{opacity:0.5;fill:url(#SVGID_00000033330237183589222520000002907805820756175255_);}
	.st65{fill:#B9B9B9;}
	.st66{fill:none;stroke:#DA007E;stroke-miterlimit:10;}
	.st67{fill:#DA007E;}
	.st68{fill:#231F20;}
	.st69{fill:#606060;}
</style>
<g id="Capa_1">
	<g>
		<g>
			<path class="st2" d="M282.8,134.42h29.77v56.1l52.48-56.1h38.93l-60.11,62.78l65.26,72.32h-41.6l-54.96-64.12v64.12H282.8V134.42
				z"/>
			<path class="st2" d="M476.29,134.42h24.62l58.77,135.1H526.1l-11.64-28.62h-52.48l-11.26,28.62H417.9L476.29,134.42z
				 M487.74,173.73l-16.41,41.98h33.01L487.74,173.73z"/>
			<path class="st2" d="M630.1,134.42h24.62l58.77,135.1H679.9l-11.64-28.62h-52.48l-11.26,28.62H571.7L630.1,134.42z
				 M641.55,173.73l-16.41,41.98h33.01L641.55,173.73z"/>
			<path class="st2" d="M739.44,134.42h50.19c6.99,0,13.61,0.64,19.85,1.91c6.23,1.27,11.67,3.47,16.32,6.58
				c4.64,3.12,8.33,7.32,11.07,12.59c2.73,5.28,4.1,11.93,4.1,19.94c0,7.89-1.27,14.5-3.82,19.84c-2.55,5.34-6.04,9.61-10.5,12.79
				c-4.45,3.18-9.73,5.44-15.84,6.77s-12.72,2-19.85,2h-21.75v52.67h-29.77V134.42z M769.21,191.67h19.85
				c2.67,0,5.25-0.25,7.73-0.76c2.48-0.51,4.71-1.37,6.68-2.58c1.97-1.21,3.56-2.86,4.77-4.96c1.21-2.1,1.81-4.74,1.81-7.92
				c0-3.44-0.8-6.2-2.39-8.3c-1.59-2.1-3.63-3.72-6.11-4.87c-2.48-1.15-5.25-1.88-8.3-2.19c-3.05-0.32-5.98-0.48-8.78-0.48h-15.27
				V191.67z"/>
			<path class="st2" d="M902.4,134.42h24.62l58.77,135.1H952.2l-11.64-28.62h-52.48l-11.26,28.62h-32.82L902.4,134.42z
				 M913.85,173.73l-16.41,41.98h33.01L913.85,173.73z"/>
		</g>
		<g>
			<path class="st2" d="M494.3,338.65c-1.55-0.7-2.77-1.66-3.65-2.9c-0.88-1.24-1.34-2.67-1.37-4.29h4.14
				c0.14,1.4,0.72,2.57,1.73,3.52c1.01,0.95,2.48,1.43,4.42,1.43c1.85,0,3.31-0.46,4.38-1.39c1.07-0.93,1.6-2.11,1.6-3.57
				c0-1.14-0.31-2.06-0.94-2.78c-0.63-0.71-1.41-1.25-2.35-1.62c-0.94-0.37-2.21-0.77-3.8-1.2c-1.96-0.51-3.54-1.02-4.72-1.54
				c-1.18-0.51-2.19-1.32-3.03-2.41c-0.84-1.1-1.26-2.57-1.26-4.42c0-1.62,0.41-3.06,1.24-4.31c0.83-1.25,1.99-2.22,3.48-2.9
				c1.49-0.68,3.21-1.02,5.15-1.02c2.79,0,5.07,0.7,6.85,2.09c1.78,1.4,2.78,3.24,3.01,5.55h-4.27c-0.14-1.14-0.74-2.14-1.79-3.01
				c-1.05-0.87-2.45-1.3-4.18-1.3c-1.62,0-2.95,0.42-3.97,1.26c-1.02,0.84-1.54,2.01-1.54,3.52c0,1.08,0.31,1.96,0.92,2.65
				c0.61,0.68,1.37,1.2,2.26,1.56c0.9,0.36,2.16,0.76,3.78,1.22c1.96,0.54,3.54,1.08,4.74,1.6c1.2,0.53,2.22,1.34,3.07,2.43
				c0.85,1.1,1.28,2.58,1.28,4.46c0,1.45-0.38,2.82-1.15,4.1c-0.77,1.28-1.91,2.32-3.42,3.12c-1.51,0.8-3.29,1.2-5.34,1.2
				C497.61,339.69,495.85,339.35,494.3,338.65z"/>
			<path class="st2" d="M515.33,311.43c-0.51-0.51-0.77-1.14-0.77-1.88c0-0.74,0.26-1.37,0.77-1.88c0.51-0.51,1.14-0.77,1.88-0.77
				c0.71,0,1.32,0.26,1.81,0.77c0.5,0.51,0.75,1.14,0.75,1.88c0,0.74-0.25,1.37-0.75,1.88c-0.5,0.51-1.1,0.77-1.81,0.77
				C516.47,312.19,515.84,311.94,515.33,311.43z M519.09,316v23.4h-3.89V316H519.09z"/>
			<path class="st2" d="M558.71,316.7c1.42,0.75,2.55,1.89,3.37,3.39c0.83,1.51,1.24,3.34,1.24,5.51v13.79h-3.84v-13.24
				c0-2.33-0.58-4.12-1.73-5.36c-1.15-1.24-2.71-1.86-4.68-1.86c-2.02,0-3.63,0.65-4.83,1.94c-1.2,1.3-1.79,3.17-1.79,5.61v12.9
				h-3.84v-13.24c0-2.33-0.58-4.12-1.73-5.36c-1.15-1.24-2.71-1.86-4.68-1.86c-2.02,0-3.63,0.65-4.83,1.94
				c-1.2,1.3-1.79,3.17-1.79,5.61v12.9h-3.89V316h3.89v3.37c0.77-1.22,1.8-2.16,3.1-2.82c1.29-0.65,2.73-0.98,4.29-0.98
				c1.96,0,3.7,0.44,5.21,1.32c1.51,0.88,2.63,2.18,3.37,3.89c0.65-1.65,1.74-2.93,3.25-3.84c1.51-0.91,3.19-1.37,5.04-1.37
				C555.67,315.57,557.29,315.95,558.71,316.7z"/>
			<path class="st2" d="M577.01,316.96c1.52-0.9,3.29-1.34,5.32-1.34c2.08,0,3.96,0.5,5.66,1.49c1.69,1,3.02,2.4,3.99,4.21
				c0.97,1.81,1.45,3.91,1.45,6.3c0,2.36-0.48,4.47-1.45,6.32c-0.97,1.85-2.3,3.29-3.99,4.31c-1.69,1.03-3.58,1.54-5.66,1.54
				c-1.99,0-3.75-0.45-5.27-1.35c-1.52-0.9-2.68-2.01-3.48-3.35v15.41h-3.89V316h3.89v4.31
				C574.34,318.97,575.49,317.85,577.01,316.96z M588.39,323c-0.71-1.31-1.67-2.31-2.88-2.99c-1.21-0.68-2.54-1.02-3.99-1.02
				c-1.42,0-2.74,0.35-3.95,1.05c-1.21,0.7-2.18,1.71-2.9,3.03c-0.73,1.32-1.09,2.85-1.09,4.59c0,1.76,0.36,3.31,1.09,4.63
				c0.73,1.32,1.69,2.34,2.9,3.03c1.21,0.7,2.53,1.05,3.95,1.05c1.45,0,2.78-0.35,3.99-1.05c1.21-0.7,2.17-1.71,2.88-3.03
				c0.71-1.32,1.07-2.88,1.07-4.68C589.46,325.85,589.1,324.31,588.39,323z"/>
			<path class="st2" d="M602.44,307.8v31.6h-3.89v-31.6H602.44z"/>
			<path class="st2" d="M609.18,311.43c-0.51-0.51-0.77-1.14-0.77-1.88c0-0.74,0.26-1.37,0.77-1.88c0.51-0.51,1.14-0.77,1.88-0.77
				c0.71,0,1.32,0.26,1.81,0.77c0.5,0.51,0.75,1.14,0.75,1.88c0,0.74-0.25,1.37-0.75,1.88c-0.5,0.51-1.1,0.77-1.81,0.77
				C610.32,312.19,609.7,311.94,609.18,311.43z M612.94,316v23.4h-3.89V316H612.94z"/>
			<path class="st2" d="M629.08,319.2h-4.91v20.2h-3.89v-20.2h-3.03V316h3.03v-1.67c0-2.62,0.68-4.53,2.03-5.74
				c1.35-1.21,3.52-1.81,6.51-1.81v3.24c-1.71,0-2.91,0.34-3.61,1c-0.7,0.67-1.05,1.77-1.05,3.31V316h4.91V319.2z"/>
			<path class="st2" d="M633.74,311.43c-0.51-0.51-0.77-1.14-0.77-1.88c0-0.74,0.26-1.37,0.77-1.88c0.51-0.51,1.14-0.77,1.88-0.77
				c0.71,0,1.32,0.26,1.81,0.77c0.5,0.51,0.75,1.14,0.75,1.88c0,0.74-0.25,1.37-0.75,1.88c-0.5,0.51-1.1,0.77-1.81,0.77
				C634.87,312.19,634.25,311.94,633.74,311.43z M637.49,316v23.4h-3.89V316H637.49z"/>
			<path class="st2" d="M644.11,321.31c0.97-1.81,2.31-3.21,4.04-4.21c1.72-1,3.69-1.49,5.91-1.49c2.87,0,5.24,0.7,7.11,2.09
				c1.86,1.4,3.1,3.33,3.69,5.81h-4.18c-0.4-1.42-1.17-2.55-2.33-3.37c-1.15-0.82-2.58-1.24-4.29-1.24c-2.22,0-4.01,0.76-5.38,2.28
				c-1.37,1.52-2.05,3.68-2.05,6.47c0,2.82,0.68,5,2.05,6.53c1.37,1.54,3.16,2.31,5.38,2.31c1.71,0,3.13-0.4,4.27-1.2
				c1.14-0.8,1.92-1.94,2.35-3.42h4.18c-0.63,2.39-1.88,4.31-3.76,5.74c-1.88,1.44-4.23,2.16-7.05,2.16c-2.22,0-4.19-0.5-5.91-1.49
				c-1.72-1-3.07-2.4-4.04-4.23c-0.97-1.82-1.45-3.96-1.45-6.4C642.66,325.23,643.14,323.12,644.11,321.31z"/>
			<path class="st2" d="M670.03,321.31c0.97-1.81,2.3-3.21,3.99-4.21c1.69-1,3.58-1.49,5.66-1.49c2.05,0,3.83,0.44,5.34,1.32
				c1.51,0.88,2.63,1.99,3.37,3.33V316h3.93v23.4h-3.93v-4.36c-0.77,1.37-1.92,2.5-3.44,3.39c-1.52,0.9-3.3,1.35-5.32,1.35
				c-2.08,0-3.96-0.51-5.64-1.54c-1.68-1.02-3-2.46-3.97-4.31c-0.97-1.85-1.45-3.96-1.45-6.32
				C668.58,325.22,669.06,323.12,670.03,321.31z M687.32,323.04c-0.71-1.31-1.67-2.31-2.88-3.01c-1.21-0.7-2.54-1.05-3.99-1.05
				c-1.45,0-2.78,0.34-3.97,1.02c-1.2,0.68-2.15,1.68-2.86,2.99c-0.71,1.31-1.07,2.85-1.07,4.61c0,1.79,0.36,3.35,1.07,4.68
				c0.71,1.32,1.67,2.34,2.86,3.03c1.2,0.7,2.52,1.05,3.97,1.05c1.45,0,2.78-0.35,3.99-1.05c1.21-0.7,2.17-1.71,2.88-3.03
				c0.71-1.32,1.07-2.87,1.07-4.63S688.03,324.35,687.32,323.04z"/>
			<path class="st2" d="M717.21,318.15c1.76,1.72,2.65,4.21,2.65,7.45v13.79h-3.84v-13.24c0-2.33-0.58-4.12-1.75-5.36
				c-1.17-1.24-2.76-1.86-4.78-1.86c-2.05,0-3.68,0.64-4.89,1.92c-1.21,1.28-1.81,3.15-1.81,5.59v12.94h-3.89V316h3.89v3.33
				c0.77-1.2,1.81-2.12,3.14-2.78c1.32-0.65,2.78-0.98,4.38-0.98C713.14,315.57,715.45,316.43,717.21,318.15z"/>
			<path class="st2" d="M726.22,321.31c0.97-1.81,2.3-3.21,3.99-4.21c1.69-1,3.59-1.49,5.7-1.49c1.82,0,3.52,0.42,5.08,1.26
				c1.57,0.84,2.76,1.94,3.59,3.31V307.8h3.93v31.6h-3.93V335c-0.77,1.4-1.91,2.54-3.42,3.44c-1.51,0.9-3.27,1.35-5.29,1.35
				c-2.08,0-3.96-0.51-5.66-1.54c-1.69-1.02-3.02-2.46-3.99-4.31c-0.97-1.85-1.45-3.96-1.45-6.32
				C724.77,325.22,725.25,323.12,726.22,321.31z M743.52,323.04c-0.71-1.31-1.67-2.31-2.88-3.01c-1.21-0.7-2.54-1.05-3.99-1.05
				c-1.45,0-2.78,0.34-3.97,1.02s-2.15,1.68-2.86,2.99c-0.71,1.31-1.07,2.85-1.07,4.61c0,1.79,0.36,3.35,1.07,4.68
				c0.71,1.32,1.67,2.34,2.86,3.03c1.2,0.7,2.52,1.05,3.97,1.05c1.45,0,2.78-0.35,3.99-1.05c1.21-0.7,2.17-1.71,2.88-3.03
				c0.71-1.32,1.07-2.87,1.07-4.63S744.23,324.35,743.52,323.04z"/>
			<path class="st2" d="M759.34,338.28c-1.78-1-3.17-2.41-4.18-4.25c-1.01-1.84-1.52-3.96-1.52-6.38c0-2.39,0.52-4.5,1.56-6.34
				c1.04-1.84,2.46-3.25,4.25-4.23c1.79-0.98,3.8-1.47,6.02-1.47c2.22,0,4.23,0.49,6.02,1.47c1.79,0.98,3.21,2.38,4.25,4.21
				s1.56,3.94,1.56,6.36s-0.53,4.55-1.6,6.38c-1.07,1.84-2.51,3.25-4.33,4.25c-1.82,1-3.84,1.49-6.06,1.49
				C763.1,339.78,761.12,339.28,759.34,338.28z M769.22,335.38c1.22-0.65,2.21-1.64,2.97-2.95c0.75-1.31,1.13-2.9,1.13-4.78
				s-0.37-3.47-1.11-4.78c-0.74-1.31-1.71-2.28-2.9-2.93c-1.2-0.64-2.49-0.96-3.89-0.96c-1.42,0-2.73,0.32-3.91,0.96
				c-1.18,0.64-2.13,1.62-2.84,2.93c-0.71,1.31-1.07,2.9-1.07,4.78c0,1.91,0.35,3.52,1.05,4.82c0.7,1.31,1.63,2.28,2.8,2.93
				c1.17,0.64,2.45,0.96,3.84,0.96C766.69,336.36,768,336.04,769.22,335.38z"/>
			<path class="st2" d="M801.14,316.96c1.52-0.9,3.29-1.34,5.32-1.34c2.08,0,3.96,0.5,5.66,1.49c1.69,1,3.02,2.4,3.99,4.21
				c0.97,1.81,1.45,3.91,1.45,6.3c0,2.36-0.48,4.47-1.45,6.32c-0.97,1.85-2.3,3.29-3.99,4.31c-1.69,1.03-3.58,1.54-5.66,1.54
				c-1.99,0-3.75-0.45-5.27-1.35c-1.52-0.9-2.68-2.01-3.48-3.35v15.41h-3.89V316h3.89v4.31
				C798.47,318.97,799.62,317.85,801.14,316.96z M812.52,323c-0.71-1.31-1.67-2.31-2.88-2.99c-1.21-0.68-2.54-1.02-3.99-1.02
				c-1.42,0-2.74,0.35-3.95,1.05c-1.21,0.7-2.18,1.71-2.9,3.03c-0.73,1.32-1.09,2.85-1.09,4.59c0,1.76,0.36,3.31,1.09,4.63
				c0.73,1.32,1.69,2.34,2.9,3.03c1.21,0.7,2.53,1.05,3.95,1.05c1.45,0,2.78-0.35,3.99-1.05c1.21-0.7,2.17-1.71,2.88-3.03
				c0.71-1.32,1.07-2.88,1.07-4.68C813.59,325.85,813.23,324.31,812.52,323z"/>
			<path class="st2" d="M829.49,316.68c1.27-0.74,2.81-1.11,4.63-1.11v4.01h-1.02c-4.36,0-6.53,2.36-6.53,7.09v12.72h-3.89V316h3.89
				v3.8C827.25,318.46,828.23,317.42,829.49,316.68z"/>
			<path class="st2" d="M842.86,338.28c-1.78-1-3.17-2.41-4.18-4.25c-1.01-1.84-1.52-3.96-1.52-6.38c0-2.39,0.52-4.5,1.56-6.34
				c1.04-1.84,2.46-3.25,4.25-4.23c1.79-0.98,3.8-1.47,6.02-1.47c2.22,0,4.23,0.49,6.02,1.47c1.79,0.98,3.21,2.38,4.25,4.21
				c1.04,1.82,1.56,3.94,1.56,6.36s-0.53,4.55-1.6,6.38c-1.07,1.84-2.51,3.25-4.33,4.25c-1.82,1-3.84,1.49-6.06,1.49
				C846.62,339.78,844.64,339.28,842.86,338.28z M852.74,335.38c1.22-0.65,2.21-1.64,2.97-2.95c0.75-1.31,1.13-2.9,1.13-4.78
				s-0.37-3.47-1.11-4.78c-0.74-1.31-1.71-2.28-2.9-2.93c-1.2-0.64-2.49-0.96-3.89-0.96c-1.42,0-2.73,0.32-3.91,0.96
				c-1.18,0.64-2.13,1.62-2.84,2.93c-0.71,1.31-1.07,2.9-1.07,4.78c0,1.91,0.35,3.52,1.05,4.82c0.7,1.31,1.63,2.28,2.8,2.93
				c1.17,0.64,2.45,0.96,3.84,0.96C850.21,336.36,851.52,336.04,852.74,335.38z"/>
			<path class="st2" d="M865.94,321.31c0.97-1.81,2.31-3.21,4.04-4.21c1.72-1,3.69-1.49,5.91-1.49c2.87,0,5.24,0.7,7.11,2.09
				c1.86,1.4,3.1,3.33,3.69,5.81h-4.18c-0.4-1.42-1.17-2.55-2.33-3.37c-1.15-0.82-2.58-1.24-4.29-1.24c-2.22,0-4.01,0.76-5.38,2.28
				c-1.37,1.52-2.05,3.68-2.05,6.47c0,2.82,0.68,5,2.05,6.53c1.37,1.54,3.16,2.31,5.38,2.31c1.71,0,3.13-0.4,4.27-1.2
				c1.14-0.8,1.92-1.94,2.35-3.42h4.18c-0.63,2.39-1.88,4.31-3.76,5.74c-1.88,1.44-4.23,2.16-7.05,2.16c-2.22,0-4.19-0.5-5.91-1.49
				c-1.72-1-3.07-2.4-4.04-4.23c-0.97-1.82-1.45-3.96-1.45-6.4C864.48,325.23,864.97,323.12,865.94,321.31z"/>
			<path class="st2" d="M913.08,329.15h-18.7c0.14,2.31,0.93,4.11,2.37,5.4c1.44,1.3,3.18,1.94,5.23,1.94
				c1.68,0,3.08-0.39,4.21-1.17c1.12-0.78,1.91-1.83,2.37-3.14h4.18c-0.63,2.25-1.88,4.08-3.76,5.49c-1.88,1.41-4.21,2.11-7,2.11
				c-2.22,0-4.21-0.5-5.96-1.49c-1.75-1-3.12-2.41-4.12-4.25c-1-1.84-1.49-3.96-1.49-6.38s0.48-4.54,1.45-6.36
				c0.97-1.82,2.33-3.22,4.08-4.21c1.75-0.98,3.76-1.47,6.04-1.47c2.22,0,4.18,0.48,5.89,1.45c1.71,0.97,3.02,2.3,3.95,3.99
				c0.92,1.69,1.39,3.61,1.39,5.74C913.21,327.54,913.16,328.32,913.08,329.15z M908.21,322.17c-0.66-1.07-1.54-1.88-2.67-2.43
				c-1.12-0.55-2.37-0.83-3.74-0.83c-1.96,0-3.64,0.63-5.02,1.88c-1.38,1.25-2.17,2.99-2.37,5.21h14.77
				C909.19,324.51,908.86,323.23,908.21,322.17z"/>
			<path class="st2" d="M921.79,338.86c-1.42-0.61-2.55-1.47-3.37-2.56c-0.83-1.1-1.28-2.36-1.37-3.78h4.01
				c0.11,1.17,0.66,2.12,1.64,2.86c0.98,0.74,2.27,1.11,3.86,1.11c1.48,0,2.65-0.33,3.5-0.98c0.85-0.65,1.28-1.48,1.28-2.48
				c0-1.02-0.46-1.79-1.37-2.28c-0.91-0.5-2.32-0.99-4.23-1.47c-1.74-0.46-3.15-0.92-4.25-1.39c-1.1-0.47-2.04-1.17-2.82-2.09
				c-0.78-0.92-1.17-2.14-1.17-3.65c0-1.2,0.36-2.29,1.07-3.29c0.71-1,1.72-1.79,3.03-2.37c1.31-0.58,2.8-0.88,4.48-0.88
				c2.59,0,4.68,0.65,6.28,1.96c1.59,1.31,2.45,3.1,2.56,5.38h-3.89c-0.09-1.22-0.58-2.21-1.47-2.95c-0.9-0.74-2.1-1.11-3.61-1.11
				c-1.4,0-2.51,0.3-3.33,0.9c-0.83,0.6-1.24,1.38-1.24,2.35c0,0.77,0.25,1.4,0.75,1.9c0.5,0.5,1.12,0.9,1.88,1.2
				c0.75,0.3,1.8,0.63,3.14,1c1.68,0.46,3.05,0.9,4.1,1.34c1.05,0.44,1.96,1.1,2.71,1.99c0.75,0.88,1.15,2.04,1.17,3.46
				c0,1.28-0.36,2.43-1.07,3.46c-0.71,1.02-1.72,1.83-3.01,2.41c-1.3,0.58-2.78,0.88-4.46,0.88
				C924.82,339.78,923.21,339.47,921.79,338.86z"/>
			<path class="st2" d="M944.87,338.28c-1.78-1-3.17-2.41-4.18-4.25c-1.01-1.84-1.52-3.96-1.52-6.38c0-2.39,0.52-4.5,1.56-6.34
				c1.04-1.84,2.46-3.25,4.25-4.23c1.79-0.98,3.8-1.47,6.02-1.47c2.22,0,4.23,0.49,6.02,1.47c1.79,0.98,3.21,2.38,4.25,4.21
				s1.56,3.94,1.56,6.36s-0.53,4.55-1.6,6.38c-1.07,1.84-2.51,3.25-4.33,4.25c-1.82,1-3.84,1.49-6.06,1.49
				C948.63,339.78,946.64,339.28,944.87,338.28z M954.75,335.38c1.22-0.65,2.21-1.64,2.97-2.95c0.75-1.31,1.13-2.9,1.13-4.78
				s-0.37-3.47-1.11-4.78c-0.74-1.31-1.71-2.28-2.9-2.93c-1.2-0.64-2.49-0.96-3.89-0.96c-1.42,0-2.73,0.32-3.91,0.96
				c-1.18,0.64-2.13,1.62-2.84,2.93c-0.71,1.31-1.07,2.9-1.07,4.78c0,1.91,0.35,3.52,1.05,4.82c0.7,1.31,1.63,2.28,2.8,2.93
				c1.17,0.64,2.45,0.96,3.84,0.96C952.22,336.36,953.53,336.04,954.75,335.38z"/>
			<path class="st2" d="M971.4,338.86c-1.42-0.61-2.55-1.47-3.37-2.56c-0.83-1.1-1.28-2.36-1.37-3.78h4.01
				c0.11,1.17,0.66,2.12,1.64,2.86c0.98,0.74,2.27,1.11,3.86,1.11c1.48,0,2.65-0.33,3.5-0.98c0.85-0.65,1.28-1.48,1.28-2.48
				c0-1.02-0.46-1.79-1.37-2.28c-0.91-0.5-2.32-0.99-4.23-1.47c-1.74-0.46-3.15-0.92-4.25-1.39c-1.1-0.47-2.04-1.17-2.82-2.09
				c-0.78-0.92-1.17-2.14-1.17-3.65c0-1.2,0.36-2.29,1.07-3.29c0.71-1,1.72-1.79,3.03-2.37c1.31-0.58,2.8-0.88,4.48-0.88
				c2.59,0,4.68,0.65,6.28,1.96c1.59,1.31,2.45,3.1,2.56,5.38h-3.89c-0.09-1.22-0.58-2.21-1.47-2.95c-0.9-0.74-2.1-1.11-3.61-1.11
				c-1.4,0-2.51,0.3-3.33,0.9c-0.83,0.6-1.24,1.38-1.24,2.35c0,0.77,0.25,1.4,0.75,1.9c0.5,0.5,1.12,0.9,1.88,1.2
				c0.75,0.3,1.8,0.63,3.14,1c1.68,0.46,3.05,0.9,4.1,1.34c1.05,0.44,1.96,1.1,2.71,1.99c0.75,0.88,1.15,2.04,1.17,3.46
				c0,1.28-0.36,2.43-1.07,3.46c-0.71,1.02-1.72,1.83-3.01,2.41c-1.3,0.58-2.78,0.88-4.46,0.88
				C974.44,339.78,972.83,339.47,971.4,338.86z"/>
		</g>
		<g>
			<path class="st2" d="M685.76,382.68c0.9,0.71,1.61,1.59,2.14,2.65c0.53,1.05,0.79,2.18,0.79,3.37c0,1.51-0.38,2.87-1.15,4.08
				c-0.77,1.21-1.89,2.16-3.35,2.86c-1.47,0.7-3.2,1.05-5.19,1.05h-11.1v-29.76h10.68c2.02,0,3.74,0.33,5.17,1
				c1.42,0.67,2.49,1.57,3.2,2.71c0.71,1.14,1.07,2.42,1.07,3.84c0,1.76-0.48,3.22-1.43,4.38c-0.95,1.15-2.21,1.99-3.78,2.5
				C683.87,381.53,684.86,381.97,685.76,382.68z M671.78,379.77h6.53c1.82,0,3.23-0.43,4.23-1.28c1-0.85,1.49-2.04,1.49-3.54
				c0-1.51-0.5-2.69-1.49-3.54c-1-0.85-2.43-1.28-4.31-1.28h-6.45V379.77z M683.18,392.11c1.08-0.91,1.62-2.18,1.62-3.8
				c0-1.65-0.57-2.95-1.71-3.91c-1.14-0.95-2.66-1.43-4.57-1.43h-6.75v10.5h6.88C680.59,393.48,682.09,393.03,683.18,392.11z"/>
			<path class="st2" d="M714.22,373.28l-14.09,34.42h-4.01l4.61-11.27l-9.44-23.14h4.31l7.34,18.96l7.26-18.96H714.22z"/>
			<path class="st2" d="M735.44,395.04c-2.28-1.29-4.08-3.1-5.4-5.42s-1.99-4.93-1.99-7.84s0.66-5.52,1.99-7.84
				c1.32-2.32,3.12-4.13,5.4-5.42c2.28-1.29,4.8-1.94,7.56-1.94c2.79,0,5.32,0.65,7.6,1.94c2.28,1.3,4.07,3.1,5.38,5.4
				c1.31,2.31,1.96,4.92,1.96,7.86c0,2.93-0.66,5.55-1.96,7.86c-1.31,2.31-3.1,4.11-5.38,5.4c-2.28,1.3-4.81,1.94-7.6,1.94
				C740.24,396.98,737.72,396.33,735.44,395.04z M748.61,392.16c1.67-0.97,2.97-2.35,3.93-4.14c0.95-1.79,1.43-3.87,1.43-6.23
				c0-2.39-0.48-4.48-1.43-6.26c-0.95-1.78-2.26-3.15-3.91-4.12c-1.65-0.97-3.53-1.45-5.64-1.45c-2.11,0-3.99,0.48-5.64,1.45
				c-1.65,0.97-2.95,2.34-3.91,4.12c-0.95,1.78-1.43,3.86-1.43,6.26c0,2.36,0.48,4.44,1.43,6.23c0.95,1.79,2.26,3.17,3.93,4.14
				c1.67,0.97,3.54,1.45,5.62,1.45C745.08,393.61,746.95,393.12,748.61,392.16z"/>
			<path class="st2" d="M796.07,373.99c1.42,0.75,2.55,1.89,3.37,3.39c0.83,1.51,1.24,3.34,1.24,5.51v13.79h-3.84v-13.24
				c0-2.33-0.58-4.12-1.73-5.36c-1.15-1.24-2.71-1.86-4.68-1.86c-2.02,0-3.63,0.65-4.83,1.94c-1.2,1.3-1.79,3.17-1.79,5.61v12.9
				h-3.84v-13.24c0-2.33-0.58-4.12-1.73-5.36c-1.15-1.24-2.71-1.86-4.68-1.86c-2.02,0-3.63,0.65-4.83,1.94
				c-1.2,1.3-1.79,3.17-1.79,5.61v12.9h-3.89v-23.4h3.89v3.37c0.77-1.22,1.8-2.16,3.1-2.82c1.29-0.65,2.73-0.98,4.29-0.98
				c1.96,0,3.7,0.44,5.21,1.32c1.51,0.88,2.63,2.18,3.37,3.89c0.65-1.65,1.74-2.93,3.25-3.84c1.51-0.91,3.19-1.37,5.04-1.37
				C793.03,372.86,794.65,373.23,796.07,373.99z"/>
			<path class="st2" d="M807.18,368.71c-0.51-0.51-0.77-1.14-0.77-1.88s0.26-1.37,0.77-1.88c0.51-0.51,1.14-0.77,1.88-0.77
				c0.71,0,1.32,0.26,1.81,0.77c0.5,0.51,0.75,1.14,0.75,1.88s-0.25,1.37-0.75,1.88c-0.5,0.51-1.1,0.77-1.81,0.77
				C808.31,369.48,807.69,369.23,807.18,368.71z M810.93,373.28v23.4h-3.89v-23.4H810.93z"/>
			<path class="st2" d="M817.55,378.6c0.97-1.81,2.31-3.21,4.04-4.21c1.72-1,3.69-1.49,5.91-1.49c2.87,0,5.24,0.7,7.11,2.09
				c1.86,1.4,3.1,3.33,3.69,5.81h-4.18c-0.4-1.42-1.17-2.55-2.33-3.37c-1.15-0.82-2.58-1.24-4.29-1.24c-2.22,0-4.01,0.76-5.38,2.28
				c-1.37,1.52-2.05,3.68-2.05,6.47c0,2.82,0.68,5,2.05,6.53c1.37,1.54,3.16,2.31,5.38,2.31c1.71,0,3.13-0.4,4.27-1.2
				c1.14-0.8,1.92-1.94,2.35-3.42h4.18c-0.63,2.39-1.88,4.31-3.76,5.74c-1.88,1.44-4.23,2.16-7.05,2.16c-2.22,0-4.19-0.5-5.91-1.49
				c-1.72-1-3.07-2.4-4.04-4.23c-0.97-1.82-1.45-3.96-1.45-6.4C816.1,382.52,816.58,380.41,817.55,378.6z"/>
			<path class="st2" d="M850.28,373.97c1.27-0.74,2.81-1.11,4.63-1.11v4.01h-1.02c-4.36,0-6.53,2.36-6.53,7.09v12.72h-3.89v-23.4
				h3.89v3.8C848.04,375.75,849.01,374.71,850.28,373.97z"/>
			<path class="st2" d="M863.65,395.57c-1.78-1-3.17-2.41-4.18-4.25c-1.01-1.84-1.52-3.96-1.52-6.38c0-2.39,0.52-4.5,1.56-6.34
				c1.04-1.84,2.46-3.25,4.25-4.23c1.79-0.98,3.8-1.47,6.02-1.47c2.22,0,4.23,0.49,6.02,1.47c1.79,0.98,3.21,2.38,4.25,4.21
				c1.04,1.82,1.56,3.94,1.56,6.36c0,2.42-0.53,4.55-1.6,6.38c-1.07,1.84-2.51,3.25-4.33,4.25c-1.82,1-3.84,1.49-6.06,1.49
				C867.41,397.07,865.42,396.57,863.65,395.57z M873.53,392.67c1.22-0.65,2.21-1.64,2.97-2.95c0.75-1.31,1.13-2.9,1.13-4.78
				c0-1.88-0.37-3.47-1.11-4.78c-0.74-1.31-1.71-2.28-2.9-2.93c-1.2-0.64-2.49-0.96-3.89-0.96c-1.42,0-2.73,0.32-3.91,0.96
				c-1.18,0.64-2.13,1.62-2.84,2.93c-0.71,1.31-1.07,2.9-1.07,4.78c0,1.91,0.35,3.52,1.05,4.82c0.7,1.31,1.63,2.28,2.8,2.93
				c1.17,0.64,2.45,0.96,3.84,0.96C871,393.65,872.31,393.32,873.53,392.67z"/>
			<path class="st2" d="M905.04,375.44c1.76,1.72,2.65,4.21,2.65,7.45v13.79h-3.84v-13.24c0-2.33-0.58-4.12-1.75-5.36
				c-1.17-1.24-2.76-1.86-4.78-1.86c-2.05,0-3.68,0.64-4.89,1.92c-1.21,1.28-1.81,3.15-1.81,5.59v12.94h-3.89v-23.4h3.89v3.33
				c0.77-1.2,1.81-2.12,3.14-2.78c1.32-0.65,2.78-0.98,4.38-0.98C900.97,372.86,903.28,373.72,905.04,375.44z"/>
			<path class="st2" d="M917.94,393.52h10.42v3.16h-14.3v-29.76h3.89V393.52z"/>
			<path class="st2" d="M932.5,378.6c0.97-1.81,2.3-3.21,3.99-4.21c1.69-1,3.58-1.49,5.66-1.49c2.05,0,3.83,0.44,5.34,1.32
				c1.51,0.88,2.63,1.99,3.37,3.33v-4.27h3.93v23.4h-3.93v-4.36c-0.77,1.37-1.92,2.5-3.44,3.39c-1.52,0.9-3.3,1.35-5.32,1.35
				c-2.08,0-3.96-0.51-5.64-1.54c-1.68-1.02-3-2.46-3.97-4.31c-0.97-1.85-1.45-3.96-1.45-6.32
				C931.05,382.51,931.53,380.41,932.5,378.6z M949.79,380.33c-0.71-1.31-1.67-2.31-2.88-3.01c-1.21-0.7-2.54-1.05-3.99-1.05
				c-1.45,0-2.78,0.34-3.97,1.02s-2.15,1.68-2.86,2.99c-0.71,1.31-1.07,2.85-1.07,4.61c0,1.79,0.36,3.35,1.07,4.68
				c0.71,1.32,1.67,2.34,2.86,3.03c1.2,0.7,2.52,1.05,3.97,1.05c1.45,0,2.78-0.35,3.99-1.05c1.21-0.7,2.17-1.71,2.88-3.03
				c0.71-1.32,1.07-2.87,1.07-4.63S950.5,381.64,949.79,380.33z"/>
			<path class="st2" d="M968.75,374.22c1.54-0.88,3.29-1.32,5.25-1.32c2.11,0,4,0.5,5.68,1.49c1.68,1,3,2.4,3.97,4.21
				c0.97,1.81,1.45,3.91,1.45,6.3c0,2.36-0.48,4.47-1.45,6.32c-0.97,1.85-2.3,3.29-3.99,4.31c-1.69,1.03-3.58,1.54-5.66,1.54
				c-2.02,0-3.79-0.44-5.32-1.32c-1.52-0.88-2.67-2.01-3.44-3.37v4.31h-3.89v-31.6h3.89v12.55
				C966.05,376.24,967.21,375.11,968.75,374.22z M980.07,380.29c-0.71-1.31-1.67-2.31-2.88-2.99c-1.21-0.68-2.54-1.02-3.99-1.02
				c-1.42,0-2.74,0.35-3.95,1.05c-1.21,0.7-2.18,1.71-2.9,3.03c-0.73,1.32-1.09,2.85-1.09,4.59c0,1.76,0.36,3.31,1.09,4.63
				c0.73,1.32,1.69,2.34,2.9,3.03c1.21,0.7,2.53,1.05,3.95,1.05c1.45,0,2.78-0.35,3.99-1.05c1.21-0.7,2.17-1.71,2.88-3.03
				c0.71-1.32,1.07-2.88,1.07-4.68C981.13,383.13,980.78,381.6,980.07,380.29z"/>
		</g>
		<path class="st2" d="M365.54,58.8c-0.02,0.02-0.04,0.02-0.06,0.02c-9.06-1.77-18.41-2.72-27.99-2.72c-8.63,0-17.09,0.76-25.3,2.21
			c-0.03,0.01-0.06-0.01-0.08-0.03l-21.15-23.88c-12.4,3.46-24.24,8.27-35.35,14.27c0,0,0,0,0,0l1.33,31.88
			c0,0.03-0.01,0.05-0.04,0.07c-14.86,9.98-27.75,22.65-38.01,37.31c-0.02,0.02-0.04,0.04-0.07,0.03l-31.85-1.93h0
			c-6.21,11-11.24,22.75-14.94,35.08l23.49,21.61c0.02,0.02,0.02,0.04,0.02,0.06c-1.77,9.05-2.71,18.41-2.71,27.99
			c0,8.63,0.76,17.08,2.21,25.3c0.01,0.03-0.01,0.06-0.03,0.08l-23.88,21.16c3.46,12.4,8.27,24.25,14.27,35.36l31.88-1.33
			c0.03,0,0.05,0.01,0.07,0.03c9.99,14.86,22.66,27.76,37.31,38.01c0.02,0.02,0.03,0.04,0.03,0.07l-1.93,31.85h0
			c11,6.21,22.75,11.24,35.08,14.94l21.61-23.49c0.02-0.02,0.04-0.02,0.06-0.02c9.06,1.78,18.41,2.72,27.99,2.72
			c8.63,0,17.09-0.76,25.3-2.21c0.03-0.01,0.06,0.01,0.08,0.03l21.15,23.88c12.41-3.46,24.25-8.27,35.36-14.27c0,0,0,0,0,0
			L418.06,321c0-0.03,0.01-0.06,0.04-0.07c4.46-2.98,8.69-6.25,12.76-9.72l-17.11-17.11c-20.77,16.99-47.31,27.2-76.24,27.2
			c-66.56,0-120.51-53.95-120.51-120.51c0-66.56,53.95-120.51,120.51-120.51c28.93,0,55.47,10.2,76.24,27.19l17.1-17.1
			c-3.37-2.88-6.85-5.65-10.51-8.18c-0.02-0.01-0.03-0.04-0.03-0.06l1.93-31.86c0,0,0,0,0,0c-11-6.21-22.75-11.24-35.08-14.94
			c0,0,0,0,0,0L365.54,58.8z"/>
	</g>
</g>
<g id="Capa_2">
</g>
</svg>
