<?xml version="1.0" encoding="utf-8"?>
<!-- Generator: Adobe Illustrator 27.6.1, SVG Export Plug-In . SVG Version: 6.00 Build 0)  -->
<svg version="1.1" xmlns="http://www.w3.org/2000/svg" xmlns:xlink="http://www.w3.org/1999/xlink" x="0px" y="0px"
	 viewBox="0 0 1156.91 442.11" style="enable-background:new 0 0 1156.91 442.11;" xml:space="preserve">
<style type="text/css">
	.st0{fill:#FFFFFF;stroke:#CECECE;stroke-width:0.5;stroke-miterlimit:10;}
	.st1{opacity:0.5;fill:url(#SVGID_00000175324264734075269710000015707887876395593362_);}
	.st2{fill:#FFFFFF;}
	.st3{opacity:0.5;fill:url(#SVGID_00000157992771125234462870000017545152654714005143_);}
	.st4{opacity:0.5;fill:url(#SVGID_00000148635134069482775490000012693760284675129004_);}
	.st5{fill:#EEEFF2;}
	.st6{fill:none;stroke:#CECECE;stroke-width:0.5;stroke-miterlimit:10;}
	.st7{fill:#0080C0;}
	.st8{clip-path:url(#SVGID_00000071522952966936642390000006117334419734209665_);}
	.st9{opacity:0.15;}
	.st10{fill:#0081C1;}
	.st11{fill:#E9E9E9;stroke:#C7C7C7;stroke-width:0.5;stroke-miterlimit:10;}
	.st12{fill:#FFFFFF;stroke:#C7C7C7;stroke-width:0.5;stroke-miterlimit:10;}
	.st13{fill:#EAEFF3;}
	.st14{fill:#E9EEF2;}
	.st15{clip-path:url(#SVGID_00000011031971183720746540000003306805464660955541_);fill:#E9EEF2;}
	.st16{clip-path:url(#SVGID_00000011031971183720746540000003306805464660955541_);}
	.st17{clip-path:url(#SVGID_00000147927410515219077770000010004354027898731951_);fill:#FFFFFF;}
	
		.st18{clip-path:url(#SVGID_00000147927410515219077770000010004354027898731951_);fill:none;stroke:#BFCAD6;stroke-width:0.926;stroke-miterlimit:10;}
	.st19{clip-path:url(#SVGID_00000147927410515219077770000010004354027898731951_);fill:#128FC3;}
	.st20{clip-path:url(#SVGID_00000147927410515219077770000010004354027898731951_);fill:#0080B7;}
	.st21{clip-path:url(#SVGID_00000147927410515219077770000010004354027898731951_);fill:#637180;}
	.st22{clip-path:url(#SVGID_00000147927410515219077770000010004354027898731951_);fill:#0F263A;}
	.st23{clip-path:url(#SVGID_00000147927410515219077770000010004354027898731951_);fill:none;stroke:#1D1D1B;stroke-miterlimit:10;}
	.st24{clip-path:url(#SVGID_00000147927410515219077770000010004354027898731951_);fill:#E9EEF2;}
	.st25{clip-path:url(#SVGID_00000147927410515219077770000010004354027898731951_);}
	.st26{clip-path:url(#SVGID_00000088111940362467030460000007834128668200875924_);fill:#ECEDEF;}
	
		.st27{clip-path:url(#SVGID_00000088111940362467030460000007834128668200875924_);fill:none;stroke:#BFCAD6;stroke-width:0.727;stroke-miterlimit:10;}
	.st28{clip-path:url(#SVGID_00000020359717766358630110000004177537639634735024_);fill:#ECEDEF;}
	
		.st29{clip-path:url(#SVGID_00000020359717766358630110000004177537639634735024_);fill:none;stroke:#0080B7;stroke-width:0.727;stroke-miterlimit:10;}
	.st30{clip-path:url(#SVGID_00000098187653098256871370000005759553327818866869_);fill:#ECEDEF;}
	
		.st31{clip-path:url(#SVGID_00000098187653098256871370000005759553327818866869_);fill:none;stroke:#DE555D;stroke-width:0.727;stroke-miterlimit:10;}
	.st32{clip-path:url(#SVGID_00000098187653098256871370000005759553327818866869_);fill:#0080B7;}
	.st33{clip-path:url(#SVGID_00000098187653098256871370000005759553327818866869_);fill:#128FC3;}
	.st34{clip-path:url(#SVGID_00000175296314908648715870000005318806533225050519_);fill:#ECEDEF;}
	.st35{clip-path:url(#SVGID_00000175296314908648715870000005318806533225050519_);fill:#BFCAD6;}
	.st36{clip-path:url(#SVGID_00000175296314908648715870000005318806533225050519_);fill:#0080B7;}
	.st37{clip-path:url(#SVGID_00000175296314908648715870000005318806533225050519_);fill:#DE555D;}
	.st38{clip-path:url(#SVGID_00000175296314908648715870000005318806533225050519_);fill:#FFFFFF;}
	.st39{clip-path:url(#SVGID_00000085946559106796106120000005351394449998939024_);fill:none;stroke:#BFCAD6;stroke-miterlimit:10;}
	.st40{clip-path:url(#SVGID_00000085946559106796106120000005351394449998939024_);fill:#0080B7;}
	.st41{clip-path:url(#SVGID_00000085946559106796106120000005351394449998939024_);fill:#FFFFFF;}
	.st42{clip-path:url(#SVGID_00000085946559106796106120000005351394449998939024_);fill:#128FC3;}
	.st43{clip-path:url(#SVGID_00000085946559106796106120000005351394449998939024_);fill:none;stroke:#128FC3;stroke-miterlimit:10;}
	.st44{clip-path:url(#SVGID_00000088126212720585167260000011955291695823481751_);fill:#0080B7;}
	.st45{clip-path:url(#SVGID_00000088126212720585167260000011955291695823481751_);fill:#637180;}
	.st46{clip-path:url(#SVGID_00000088126212720585167260000011955291695823481751_);fill:none;stroke:#BFCAD6;stroke-miterlimit:10;}
	
		.st47{clip-path:url(#SVGID_00000088126212720585167260000011955291695823481751_);fill:none;stroke:#BFCAD6;stroke-width:0.727;stroke-miterlimit:10;}
	.st48{fill:#637080;}
	.st49{fill:none;stroke:#637080;stroke-width:2;stroke-linecap:round;stroke-linejoin:round;stroke-miterlimit:10;}
	.st50{fill:none;stroke:#0081C1;stroke-width:2;stroke-miterlimit:10;}
	.st51{fill:#1B1C1D;}
	.st52{fill:none;stroke:#1B1C1D;stroke-width:0.25;stroke-linecap:round;stroke-linejoin:round;stroke-miterlimit:10;}
	.st53{fill:none;stroke:#1B1C1D;stroke-width:0.5;stroke-linecap:round;stroke-linejoin:round;stroke-miterlimit:10;}
	.st54{fill:none;stroke:#1B1C1D;stroke-width:0.75;stroke-linecap:round;stroke-linejoin:round;stroke-miterlimit:10;}
	.st55{fill:#D32828;}
	.st56{clip-path:url(#SVGID_00000120536527550550141300000010879693002451730611_);}
	.st57{fill:none;}
	.st58{opacity:0.5;}
	.st59{clip-path:url(#SVGID_00000145056970210166748690000007363840041380713376_);}
	.st60{fill:none;stroke:#637080;stroke-linecap:round;stroke-linejoin:round;}
	.st61{fill:none;stroke:#DA007E;stroke-width:0.5;stroke-miterlimit:10;}
	.st62{clip-path:url(#SVGID_00000088848286057882789110000004337573697785865136_);}
	.st63{clip-path:url(#SVGID_00000081614450676442100580000005317809262008156569_);}
	.st64{fill:#B9B9B9;}
	.st65{fill:none;stroke:#DA007E;stroke-miterlimit:10;}
	.st66{fill:#DA007E;}
	.st67{fill:#231F20;}
	.st68{fill:#606060;}
	.st69{opacity:0.5;fill:url(#SVGID_00000155844559230690781750000001426056790464603815_);}
</style>
<g id="Capa_1">
</g>
<g id="Capa_2">
	<g>
		<path class="st10" d="M370.26,243.08c-1.63-1.5-2.37-3.71-2.01-5.89c1.08-6.51,1.65-13.2,1.65-20.02c0-6.04-0.44-11.98-1.3-17.78
			c-0.32-2.18,0.47-4.37,2.12-5.84L385,180.91c1.91-1.69,2.67-4.34,1.91-6.77c-2.36-7.58-5.32-14.9-8.83-21.89
			c-1.14-2.27-3.53-3.65-6.07-3.55l-19.05,0.79c-2.21,0.09-4.3-0.95-5.59-2.75c-7.36-10.3-16.3-19.4-26.46-26.95
			c-1.77-1.32-2.78-3.43-2.65-5.64l1.15-19.03c0.15-2.54-1.18-4.95-3.43-6.14c-6.93-3.65-14.19-6.75-21.72-9.25
			c-2.42-0.8-5.08-0.09-6.81,1.78l-12.91,14.03c-1.5,1.63-3.71,2.37-5.89,2.01c-6.51-1.08-13.2-1.65-20.02-1.65
			c-6.04,0-11.98,0.44-17.78,1.3c-2.18,0.32-4.38-0.47-5.84-2.12L212.36,80.8c-1.69-1.91-4.34-2.67-6.77-1.91
			c-7.58,2.36-14.9,5.32-21.89,8.83c-2.27,1.14-3.65,3.53-3.55,6.07l0.79,19.05c0.09,2.21-0.95,4.3-2.75,5.59
			c-10.3,7.36-19.4,16.3-26.95,26.46c-1.32,1.77-3.43,2.78-5.64,2.65l-19.03-1.15c-2.54-0.15-4.95,1.18-6.14,3.43
			c-3.65,6.93-6.75,14.19-9.25,21.72c-0.8,2.42-0.09,5.08,1.78,6.81l14.03,12.91c1.62,1.5,2.37,3.71,2.01,5.89
			c-1.08,6.51-1.65,13.2-1.65,20.02c0,6.04,0.44,11.98,1.3,17.78c0.32,2.18-0.47,4.38-2.12,5.84l-14.27,12.64
			c-1.91,1.69-2.67,4.34-1.91,6.77c2.36,7.58,5.32,14.9,8.83,21.89c1.14,2.28,3.53,3.65,6.07,3.55l19.05-0.79
			c2.21-0.09,4.3,0.95,5.59,2.75c5.05,7.07,10.9,13.53,17.32,19.36v0.78h0.82c2.68,2.38,5.43,4.68,8.31,6.82
			c1.78,1.32,2.78,3.43,2.65,5.64l-1.15,19.03c-0.15,2.54,1.18,4.95,3.43,6.14c6.93,3.65,14.19,6.75,21.72,9.25
			c2.42,0.8,5.08,0.09,6.81-1.78l12.91-14.03c1.5-1.63,3.71-2.37,5.89-2.01c6.51,1.08,13.2,1.65,20.02,1.65
			c6.04,0,11.98-0.44,17.78-1.3c2.18-0.32,4.38,0.47,5.84,2.12l12.64,14.27c1.69,1.91,4.34,2.67,6.77,1.91
			c7.58-2.36,14.9-5.32,21.89-8.83c2.27-1.14,3.65-3.53,3.55-6.07l-0.79-19.05c-0.09-2.21,0.95-4.3,2.75-5.59
			c3.53-2.52,6.86-5.3,10.1-8.17h0.88v-0.8c5.85-5.31,11.25-11.12,15.97-17.48c1.32-1.77,3.43-2.78,5.64-2.65l19.03,1.15
			c2.54,0.15,4.95-1.18,6.14-3.43c3.65-6.93,6.75-14.19,9.25-21.72c0.8-2.42,0.09-5.08-1.78-6.81L370.26,243.08z M272.09,279.78
			l-50.94-59.43v59.43h-27.59V154.56h27.59v52l48.64-52h36.08l-55.71,58.19l60.49,67.03H272.09z"/>
		<g>
			<g>
				<path class="st10" d="M441.27,154.65h27.59v52l48.64-52h36.08l-55.71,58.19l60.49,67.03H519.8l-50.94-59.43v59.43h-27.59V154.65
					z"/>
				<path class="st10" d="M609.11,154.65h22.81l54.48,125.22h-31.13l-10.79-26.53h-48.64l-10.44,26.53h-30.42L609.11,154.65z
					 M619.72,191.08l-15.21,38.91h30.6L619.72,191.08z"/>
				<path class="st10" d="M740.17,154.65h22.81l54.48,125.22h-31.13l-10.79-26.53h-48.64l-10.44,26.53h-30.42L740.17,154.65z
					 M750.78,191.08l-15.21,38.91h30.6L750.78,191.08z"/>
				<path class="st10" d="M830.02,154.65h46.52c6.48,0,12.62,0.59,18.39,1.77c5.78,1.18,10.82,3.22,15.12,6.1
					c4.3,2.89,7.72,6.78,10.26,11.67c2.53,4.9,3.8,11.06,3.8,18.48c0,7.31-1.18,13.44-3.54,18.4c-2.36,4.95-5.6,8.9-9.73,11.85
					c-4.13,2.95-9.02,5.04-14.68,6.28c-5.66,1.24-11.79,1.86-18.39,1.86h-20.16v48.82h-27.59V154.65z M857.61,207.71h18.4
					c2.47,0,4.86-0.23,7.16-0.71c2.3-0.47,4.36-1.27,6.19-2.39c1.83-1.12,3.3-2.65,4.42-4.6c1.12-1.94,1.68-4.39,1.68-7.34
					c0-3.18-0.74-5.75-2.21-7.69c-1.48-1.94-3.36-3.45-5.66-4.51c-2.3-1.06-4.86-1.74-7.69-2.04c-2.83-0.29-5.55-0.44-8.14-0.44
					h-14.15V207.71z"/>
				<path class="st10" d="M969.57,154.65h22.81l54.48,125.22h-31.13l-10.79-26.53H956.3l-10.44,26.53h-30.42L969.57,154.65z
					 M980.18,191.08l-15.21,38.91h30.6L980.18,191.08z"/>
			</g>
		</g>
		<g>
			<g>
				<path class="st48" d="M448.11,349.05c-1.89-0.85-3.38-2.03-4.45-3.54c-1.08-1.51-1.64-3.26-1.67-5.23h5.05
					c0.17,1.7,0.88,3.13,2.11,4.3c1.23,1.16,3.03,1.74,5.39,1.74c2.26,0,4.04-0.56,5.34-1.69c1.3-1.13,1.95-2.58,1.95-4.35
					c0-1.39-0.38-2.52-1.15-3.39c-0.76-0.87-1.72-1.53-2.86-1.98c-1.15-0.45-2.69-0.94-4.64-1.46c-2.4-0.62-4.32-1.25-5.76-1.88
					c-1.44-0.62-2.67-1.6-3.7-2.94c-1.02-1.34-1.54-3.13-1.54-5.39c0-1.98,0.5-3.73,1.51-5.26c1.01-1.53,2.42-2.71,4.25-3.54
					c1.82-0.83,3.91-1.25,6.28-1.25c3.4,0,6.19,0.85,8.36,2.55c2.17,1.7,3.39,3.96,3.67,6.77h-5.21c-0.17-1.39-0.9-2.61-2.19-3.67
					c-1.29-1.06-2.99-1.59-5.11-1.59c-1.98,0-3.6,0.51-4.84,1.54c-1.25,1.02-1.88,2.46-1.88,4.3c0,1.32,0.37,2.4,1.12,3.23
					c0.75,0.83,1.67,1.47,2.76,1.9c1.09,0.43,2.63,0.93,4.61,1.48c2.4,0.66,4.33,1.31,5.78,1.95c1.46,0.64,2.71,1.63,3.75,2.97
					c1.04,1.34,1.56,3.15,1.56,5.44c0,1.77-0.47,3.44-1.41,5c-0.94,1.56-2.33,2.83-4.17,3.81c-1.84,0.97-4.01,1.46-6.51,1.46
					C452.14,350.33,450,349.91,448.11,349.05z"/>
				<path class="st48" d="M473.76,315.84c-0.63-0.62-0.94-1.39-0.94-2.29s0.31-1.67,0.94-2.29c0.62-0.62,1.39-0.94,2.29-0.94
					c0.87,0,1.61,0.31,2.22,0.94s0.91,1.39,0.91,2.29s-0.31,1.67-0.91,2.29c-0.61,0.63-1.35,0.94-2.22,0.94
					C475.15,316.78,474.39,316.47,473.76,315.84z M478.35,321.42v28.55h-4.74v-28.55H478.35z"/>
				<path class="st48" d="M526.69,322.28c1.74,0.92,3.11,2.3,4.11,4.14c1.01,1.84,1.51,4.08,1.51,6.72v16.83h-4.69v-16.15
					c0-2.85-0.71-5.03-2.11-6.54c-1.41-1.51-3.31-2.27-5.71-2.27c-2.47,0-4.43,0.79-5.89,2.37c-1.46,1.58-2.19,3.86-2.19,6.85v15.73
					h-4.69v-16.15c0-2.85-0.71-5.03-2.11-6.54c-1.41-1.51-3.31-2.27-5.71-2.27c-2.47,0-4.43,0.79-5.89,2.37
					c-1.46,1.58-2.19,3.86-2.19,6.85v15.73h-4.74v-28.55h4.74v4.11c0.94-1.49,2.19-2.64,3.78-3.44c1.58-0.8,3.32-1.2,5.24-1.2
					c2.4,0,4.51,0.54,6.35,1.61c1.84,1.08,3.21,2.66,4.11,4.74c0.8-2.01,2.12-3.58,3.96-4.69c1.84-1.11,3.89-1.67,6.15-1.67
					C522.98,320.9,524.96,321.36,526.69,322.28z"/>
				<path class="st48" d="M549.01,322.59c1.86-1.09,4.02-1.64,6.49-1.64c2.53,0,4.84,0.61,6.9,1.83c2.07,1.21,3.69,2.92,4.87,5.13
					c1.18,2.21,1.77,4.77,1.77,7.69c0,2.88-0.59,5.45-1.77,7.71c-1.18,2.26-2.81,4.01-4.87,5.26c-2.07,1.25-4.37,1.88-6.9,1.88
					c-2.43,0-4.58-0.55-6.44-1.64c-1.86-1.09-3.27-2.46-4.24-4.09v18.81h-4.74v-42.09h4.74v5.26
					C545.76,325.05,547.16,323.69,549.01,322.59z M562.9,329.96c-0.87-1.6-2.04-2.81-3.52-3.65c-1.48-0.83-3.1-1.25-4.87-1.25
					c-1.74,0-3.34,0.43-4.82,1.28c-1.48,0.85-2.66,2.08-3.54,3.7c-0.89,1.61-1.33,3.48-1.33,5.6c0,2.15,0.44,4.04,1.33,5.65
					c0.89,1.61,2.07,2.85,3.54,3.7c1.48,0.85,3.08,1.28,4.82,1.28c1.77,0,3.4-0.43,4.87-1.28c1.48-0.85,2.65-2.08,3.52-3.7
					c0.87-1.61,1.3-3.51,1.3-5.7C564.2,333.44,563.76,331.56,562.9,329.96z"/>
				<path class="st48" d="M580.04,311.42v38.55h-4.74v-38.55H580.04z"/>
				<path class="st48" d="M588.27,315.84c-0.63-0.62-0.94-1.39-0.94-2.29s0.31-1.67,0.94-2.29c0.62-0.62,1.39-0.94,2.29-0.94
					c0.87,0,1.61,0.31,2.22,0.94s0.91,1.39,0.91,2.29s-0.31,1.67-0.91,2.29c-0.61,0.63-1.35,0.94-2.22,0.94
					C589.66,316.78,588.9,316.47,588.27,315.84z M592.85,321.42v28.55h-4.74v-28.55H592.85z"/>
				<path class="st48" d="M612.54,325.32h-5.99v24.64h-4.74v-24.64h-3.7v-3.9h3.7v-2.03c0-3.2,0.82-5.53,2.47-7.01
					c1.65-1.48,4.3-2.22,7.95-2.22v3.96c-2.08,0-3.55,0.41-4.4,1.22c-0.85,0.82-1.28,2.16-1.28,4.04v2.03h5.99V325.32z"/>
				<path class="st48" d="M618.23,315.84c-0.63-0.62-0.94-1.39-0.94-2.29s0.31-1.67,0.94-2.29c0.62-0.62,1.39-0.94,2.29-0.94
					c0.87,0,1.61,0.31,2.22,0.94s0.91,1.39,0.91,2.29s-0.31,1.67-0.91,2.29c-0.61,0.63-1.35,0.94-2.22,0.94
					C619.61,316.78,618.85,316.47,618.23,315.84z M622.81,321.42v28.55h-4.74v-28.55H622.81z"/>
				<path class="st48" d="M630.88,327.9c1.18-2.21,2.82-3.91,4.93-5.13c2.1-1.21,4.51-1.83,7.22-1.83c3.51,0,6.4,0.85,8.67,2.55
					c2.28,1.7,3.78,4.06,4.51,7.08h-5.11c-0.49-1.74-1.43-3.11-2.84-4.11s-3.15-1.51-5.23-1.51c-2.71,0-4.9,0.93-6.56,2.79
					c-1.67,1.86-2.5,4.49-2.5,7.89c0,3.44,0.83,6.1,2.5,7.97c1.67,1.88,3.85,2.82,6.56,2.82c2.08,0,3.82-0.49,5.21-1.46
					c1.39-0.97,2.34-2.36,2.87-4.17h5.11c-0.76,2.92-2.29,5.25-4.59,7.01c-2.29,1.75-5.16,2.63-8.59,2.63
					c-2.71,0-5.12-0.61-7.22-1.82c-2.1-1.22-3.75-2.93-4.93-5.16c-1.18-2.22-1.77-4.82-1.77-7.81
					C629.11,332.69,629.7,330.11,630.88,327.9z"/>
				<path class="st48" d="M662.5,327.9c1.18-2.21,2.81-3.91,4.87-5.13c2.07-1.21,4.37-1.83,6.9-1.83c2.5,0,4.67,0.54,6.51,1.61
					c1.84,1.08,3.21,2.43,4.11,4.06v-5.21h4.79v28.55h-4.79v-5.31c-0.94,1.67-2.34,3.05-4.19,4.14c-1.86,1.1-4.02,1.64-6.49,1.64
					c-2.54,0-4.83-0.62-6.88-1.88c-2.05-1.25-3.67-3-4.85-5.26c-1.18-2.26-1.77-4.83-1.77-7.71
					C660.73,332.67,661.32,330.11,662.5,327.9z M683.6,330.01c-0.87-1.59-2.04-2.82-3.52-3.67c-1.48-0.85-3.1-1.28-4.87-1.28
					c-1.77,0-3.39,0.42-4.85,1.25s-2.62,2.05-3.49,3.65c-0.87,1.6-1.3,3.47-1.3,5.63c0,2.19,0.43,4.09,1.3,5.7
					c0.87,1.61,2.03,2.85,3.49,3.7c1.46,0.85,3.07,1.28,4.85,1.28c1.77,0,3.39-0.43,4.87-1.28c1.48-0.85,2.65-2.08,3.52-3.7
					c0.87-1.61,1.3-3.5,1.3-5.65C684.91,333.49,684.47,331.61,683.6,330.01z"/>
				<path class="st48" d="M720.07,324.05c2.15,2.1,3.23,5.13,3.23,9.09v16.83h-4.69v-16.15c0-2.85-0.71-5.03-2.14-6.54
					c-1.42-1.51-3.37-2.27-5.83-2.27c-2.5,0-4.49,0.78-5.96,2.34c-1.48,1.56-2.22,3.84-2.22,6.83v15.78h-4.74v-28.55h4.74v4.06
					c0.94-1.46,2.22-2.58,3.83-3.39c1.61-0.8,3.39-1.2,5.34-1.2C715.1,320.9,717.92,321.95,720.07,324.05z"/>
				<path class="st48" d="M731.06,327.9c1.18-2.21,2.81-3.91,4.87-5.13c2.07-1.21,4.39-1.83,6.95-1.83c2.22,0,4.29,0.51,6.2,1.54
					c1.91,1.02,3.37,2.37,4.38,4.04v-15.11h4.79v38.55h-4.79v-5.37c-0.94,1.7-2.33,3.1-4.17,4.19c-1.84,1.1-3.99,1.64-6.46,1.64
					c-2.53,0-4.84-0.62-6.9-1.88c-2.07-1.25-3.69-3-4.87-5.26c-1.18-2.26-1.77-4.83-1.77-7.71
					C729.29,332.67,729.88,330.11,731.06,327.9z M752.16,330.01c-0.87-1.59-2.04-2.82-3.52-3.67c-1.48-0.85-3.1-1.28-4.87-1.28
					c-1.77,0-3.39,0.42-4.85,1.25s-2.62,2.05-3.49,3.65c-0.87,1.6-1.3,3.47-1.3,5.63c0,2.19,0.43,4.09,1.3,5.7
					c0.87,1.61,2.03,2.85,3.49,3.7c1.46,0.85,3.07,1.28,4.85,1.28c1.77,0,3.39-0.43,4.87-1.28c1.48-0.85,2.65-2.08,3.52-3.7
					c0.87-1.61,1.3-3.5,1.3-5.65C753.46,333.49,753.03,331.61,752.16,330.01z"/>
				<path class="st48" d="M771.46,348.61c-2.17-1.22-3.87-2.94-5.1-5.18c-1.23-2.24-1.85-4.84-1.85-7.79c0-2.92,0.63-5.5,1.9-7.74
					c1.27-2.24,3-3.96,5.18-5.16c2.19-1.2,4.64-1.8,7.34-1.8c2.71,0,5.16,0.6,7.34,1.8c2.19,1.2,3.92,2.91,5.18,5.13
					c1.27,2.22,1.9,4.81,1.9,7.76c0,2.95-0.65,5.55-1.95,7.79c-1.3,2.24-3.07,3.97-5.29,5.18c-2.22,1.21-4.69,1.82-7.4,1.82
					C776.05,350.43,773.63,349.83,771.46,348.61z M783.52,345.07c1.49-0.8,2.7-1.99,3.62-3.59c0.92-1.6,1.38-3.54,1.38-5.83
					s-0.45-4.24-1.35-5.83c-0.91-1.6-2.09-2.79-3.54-3.57c-1.46-0.78-3.04-1.17-4.74-1.17c-1.74,0-3.33,0.39-4.77,1.17
					c-1.44,0.78-2.6,1.97-3.47,3.57c-0.87,1.6-1.3,3.54-1.3,5.83c0,2.33,0.42,4.29,1.28,5.89c0.85,1.6,1.99,2.79,3.41,3.57
					c1.42,0.78,2.99,1.17,4.69,1.17C780.43,346.27,782.03,345.87,783.52,345.07z"/>
				<path class="st48" d="M822.46,322.59c1.86-1.09,4.02-1.64,6.49-1.64c2.53,0,4.84,0.61,6.9,1.83c2.07,1.21,3.69,2.92,4.87,5.13
					c1.18,2.21,1.77,4.77,1.77,7.69c0,2.88-0.59,5.45-1.77,7.71c-1.18,2.26-2.81,4.01-4.87,5.26c-2.07,1.25-4.37,1.88-6.9,1.88
					c-2.43,0-4.58-0.55-6.44-1.64c-1.86-1.09-3.27-2.46-4.24-4.09v18.81h-4.74v-42.09h4.74v5.26
					C819.2,325.05,820.6,323.69,822.46,322.59z M836.35,329.96c-0.87-1.6-2.04-2.81-3.52-3.65c-1.48-0.83-3.1-1.25-4.87-1.25
					c-1.74,0-3.34,0.43-4.82,1.28c-1.48,0.85-2.66,2.08-3.54,3.7c-0.89,1.61-1.33,3.48-1.33,5.6c0,2.15,0.44,4.04,1.33,5.65
					c0.89,1.61,2.07,2.85,3.54,3.7c1.48,0.85,3.08,1.28,4.82,1.28c1.77,0,3.4-0.43,4.87-1.28c1.48-0.85,2.65-2.08,3.52-3.7
					c0.87-1.61,1.3-3.51,1.3-5.7C837.65,333.44,837.21,331.56,836.35,329.96z"/>
				<path class="st48" d="M857.05,322.25c1.54-0.9,3.43-1.35,5.65-1.35v4.9h-1.25c-5.32,0-7.97,2.88-7.97,8.65v15.52h-4.74v-28.55
					h4.74v4.63C854.32,324.42,855.51,323.16,857.05,322.25z"/>
				<path class="st48" d="M873.36,348.61c-2.17-1.22-3.87-2.94-5.1-5.18c-1.23-2.24-1.85-4.84-1.85-7.79c0-2.92,0.63-5.5,1.9-7.74
					c1.27-2.24,3-3.96,5.18-5.16c2.19-1.2,4.64-1.8,7.34-1.8c2.71,0,5.16,0.6,7.34,1.8c2.19,1.2,3.92,2.91,5.18,5.13
					c1.27,2.22,1.9,4.81,1.9,7.76c0,2.95-0.65,5.55-1.95,7.79c-1.3,2.24-3.07,3.97-5.29,5.18c-2.22,1.21-4.69,1.82-7.4,1.82
					C877.95,350.43,875.53,349.83,873.36,348.61z M885.42,345.07c1.49-0.8,2.7-1.99,3.62-3.59c0.92-1.6,1.38-3.54,1.38-5.83
					s-0.45-4.24-1.35-5.83c-0.91-1.6-2.09-2.79-3.55-3.57c-1.46-0.78-3.04-1.17-4.74-1.17c-1.74,0-3.33,0.39-4.77,1.17
					c-1.44,0.78-2.6,1.97-3.47,3.57c-0.87,1.6-1.3,3.54-1.3,5.83c0,2.33,0.42,4.29,1.28,5.89c0.85,1.6,1.99,2.79,3.41,3.57
					c1.42,0.78,2.99,1.17,4.69,1.17C882.33,346.27,883.92,345.87,885.42,345.07z"/>
				<path class="st48" d="M901.51,327.9c1.18-2.21,2.82-3.91,4.93-5.13c2.1-1.21,4.51-1.83,7.22-1.83c3.51,0,6.4,0.85,8.67,2.55
					c2.28,1.7,3.78,4.06,4.51,7.08h-5.11c-0.49-1.74-1.43-3.11-2.84-4.11s-3.15-1.51-5.23-1.51c-2.71,0-4.9,0.93-6.56,2.79
					c-1.67,1.86-2.5,4.49-2.5,7.89c0,3.44,0.83,6.1,2.5,7.97c1.67,1.88,3.85,2.82,6.56,2.82c2.08,0,3.82-0.49,5.21-1.46
					c1.39-0.97,2.34-2.36,2.87-4.17h5.11c-0.76,2.92-2.29,5.25-4.59,7.01c-2.29,1.75-5.16,2.63-8.59,2.63
					c-2.71,0-5.12-0.61-7.22-1.82c-2.1-1.22-3.75-2.93-4.93-5.16c-1.18-2.22-1.77-4.82-1.77-7.81
					C899.74,332.69,900.33,330.11,901.51,327.9z"/>
				<path class="st48" d="M959.03,337.46h-22.82c0.17,2.82,1.14,5.01,2.89,6.59s3.88,2.37,6.38,2.37c2.05,0,3.76-0.48,5.13-1.43
					c1.37-0.95,2.33-2.23,2.89-3.83h5.11c-0.76,2.74-2.29,4.97-4.58,6.69c-2.29,1.72-5.14,2.58-8.55,2.58
					c-2.71,0-5.13-0.61-7.27-1.82c-2.14-1.22-3.81-2.94-5.03-5.18c-1.22-2.24-1.83-4.84-1.83-7.79c0-2.95,0.59-5.54,1.77-7.76
					c1.18-2.22,2.84-3.94,4.98-5.13s4.59-1.8,7.37-1.8c2.71,0,5.11,0.59,7.19,1.77c2.09,1.18,3.69,2.81,4.82,4.87
					c1.13,2.07,1.69,4.4,1.69,7.01C959.19,335.5,959.13,336.46,959.03,337.46z M953.09,328.95c-0.8-1.3-1.88-2.29-3.26-2.97
					c-1.37-0.68-2.89-1.01-4.56-1.01c-2.4,0-4.44,0.76-6.12,2.29c-1.69,1.53-2.65,3.65-2.89,6.36h18.02
					C954.29,331.8,953.89,330.25,953.09,328.95z"/>
				<path class="st48" d="M969.66,349.32c-1.74-0.75-3.11-1.79-4.11-3.12c-1.01-1.34-1.56-2.87-1.67-4.61h4.9
					c0.14,1.42,0.81,2.58,2.01,3.49c1.2,0.91,2.77,1.36,4.71,1.36c1.81,0,3.23-0.4,4.27-1.2c1.04-0.8,1.56-1.81,1.56-3.02
					c0-1.25-0.56-2.18-1.67-2.79c-1.11-0.61-2.83-1.2-5.16-1.8c-2.12-0.55-3.85-1.12-5.18-1.69c-1.34-0.57-2.49-1.42-3.44-2.55
					c-0.96-1.13-1.43-2.61-1.43-4.45c0-1.46,0.43-2.8,1.3-4.01c0.87-1.21,2.1-2.18,3.7-2.89s3.42-1.07,5.47-1.07
					c3.16,0,5.71,0.8,7.66,2.4c1.94,1.6,2.99,3.79,3.12,6.56h-4.74c-0.11-1.49-0.71-2.69-1.8-3.6c-1.1-0.9-2.56-1.35-4.4-1.35
					c-1.7,0-3.06,0.36-4.06,1.09c-1.01,0.73-1.51,1.69-1.51,2.87c0,0.94,0.31,1.71,0.91,2.32c0.61,0.61,1.37,1.1,2.29,1.46
					c0.92,0.37,2.19,0.77,3.83,1.22c2.05,0.56,3.72,1.1,5,1.64c1.28,0.54,2.38,1.35,3.31,2.42c0.92,1.08,1.4,2.48,1.43,4.22
					c0,1.56-0.43,2.97-1.3,4.22c-0.87,1.25-2.09,2.23-3.67,2.94c-1.58,0.71-3.39,1.07-5.44,1.07
					C973.36,350.43,971.39,350.06,969.66,349.32z"/>
				<path class="st48" d="M997.81,348.61c-2.17-1.22-3.87-2.94-5.1-5.18c-1.23-2.24-1.85-4.84-1.85-7.79c0-2.92,0.63-5.5,1.9-7.74
					c1.27-2.24,3-3.96,5.18-5.16c2.19-1.2,4.64-1.8,7.34-1.8c2.71,0,5.16,0.6,7.34,1.8c2.19,1.2,3.92,2.91,5.18,5.13
					c1.27,2.22,1.9,4.81,1.9,7.76c0,2.95-0.65,5.55-1.95,7.79c-1.3,2.24-3.07,3.97-5.29,5.18c-2.22,1.21-4.69,1.82-7.4,1.82
					C1002.41,350.43,999.98,349.83,997.81,348.61z M1009.88,345.07c1.49-0.8,2.7-1.99,3.62-3.59c0.92-1.6,1.38-3.54,1.38-5.83
					s-0.45-4.24-1.35-5.83c-0.91-1.6-2.09-2.79-3.55-3.57c-1.46-0.78-3.04-1.17-4.74-1.17c-1.74,0-3.33,0.39-4.77,1.17
					c-1.44,0.78-2.6,1.97-3.47,3.57c-0.87,1.6-1.3,3.54-1.3,5.83c0,2.33,0.42,4.29,1.28,5.89c0.85,1.6,1.99,2.79,3.41,3.57
					c1.42,0.78,2.99,1.17,4.69,1.17C1006.78,346.27,1008.38,345.87,1009.88,345.07z"/>
				<path class="st48" d="M1030.19,349.32c-1.74-0.75-3.11-1.79-4.11-3.12c-1.01-1.34-1.56-2.87-1.67-4.61h4.9
					c0.14,1.42,0.81,2.58,2.01,3.49c1.2,0.91,2.77,1.36,4.71,1.36c1.81,0,3.23-0.4,4.27-1.2c1.04-0.8,1.56-1.81,1.56-3.02
					c0-1.25-0.56-2.18-1.67-2.79c-1.11-0.61-2.83-1.2-5.16-1.8c-2.12-0.55-3.85-1.12-5.18-1.69c-1.34-0.57-2.49-1.42-3.44-2.55
					c-0.96-1.13-1.43-2.61-1.43-4.45c0-1.46,0.43-2.8,1.3-4.01c0.86-1.21,2.1-2.18,3.7-2.89c1.6-0.71,3.42-1.07,5.47-1.07
					c3.16,0,5.71,0.8,7.66,2.4c1.94,1.6,2.99,3.79,3.12,6.56h-4.74c-0.11-1.49-0.71-2.69-1.8-3.6c-1.1-0.9-2.56-1.35-4.4-1.35
					c-1.7,0-3.06,0.36-4.06,1.09c-1.01,0.73-1.51,1.69-1.51,2.87c0,0.94,0.31,1.71,0.91,2.32c0.61,0.61,1.37,1.1,2.29,1.46
					c0.92,0.37,2.19,0.77,3.83,1.22c2.05,0.56,3.72,1.1,5,1.64c1.28,0.54,2.38,1.35,3.31,2.42c0.92,1.08,1.4,2.48,1.43,4.22
					c0,1.56-0.43,2.97-1.3,4.22c-0.87,1.25-2.09,2.23-3.67,2.94c-1.58,0.71-3.39,1.07-5.44,1.07
					C1033.89,350.43,1031.93,350.06,1030.19,349.32z"/>
			</g>
		</g>
	</g>
</g>
</svg>
