<?xml version="1.0" encoding="utf-8"?>
<!-- Generator: Adobe Illustrator 27.6.1, SVG Export Plug-In . SVG Version: 6.00 Build 0)  -->
<svg version="1.1" xmlns="http://www.w3.org/2000/svg" xmlns:xlink="http://www.w3.org/1999/xlink" x="0px" y="0px"
	 viewBox="0 0 1156.91 442.11" style="enable-background:new 0 0 1156.91 442.11;" xml:space="preserve">
<style type="text/css">
	.st0{fill:#FFFFFF;stroke:#CECECE;stroke-width:0.5;stroke-miterlimit:10;}
	.st1{opacity:0.5;fill:url(#SVGID_00000022527598808599139610000006791428955781919113_);}
	.st2{fill:#FFFFFF;}
	.st3{opacity:0.5;fill:url(#SVGID_00000165920594926259765690000011460100263194737552_);}
	.st4{opacity:0.5;fill:url(#SVGID_00000089534009167416888630000008973246992089598600_);}
	.st5{fill:#EEEFF2;}
	.st6{fill:none;stroke:#CECECE;stroke-width:0.5;stroke-miterlimit:10;}
	.st7{fill:#0080C0;}
	.st8{clip-path:url(#SVGID_00000075153825052376072020000014369234104727244706_);}
	.st9{opacity:0.15;}
	.st10{fill:#0081C1;}
	.st11{fill:#E9E9E9;stroke:#C7C7C7;stroke-width:0.5;stroke-miterlimit:10;}
	.st12{fill:#FFFFFF;stroke:#C7C7C7;stroke-width:0.5;stroke-miterlimit:10;}
	.st13{fill:#EAEFF3;}
	.st14{fill:#E9EEF2;}
	.st15{clip-path:url(#SVGID_00000083796323165023501770000000683853737061013926_);fill:#E9EEF2;}
	.st16{clip-path:url(#SVGID_00000083796323165023501770000000683853737061013926_);}
	.st17{clip-path:url(#SVGID_00000072997806014073256590000017908146673840299164_);fill:#FFFFFF;}
	
		.st18{clip-path:url(#SVGID_00000072997806014073256590000017908146673840299164_);fill:none;stroke:#BFCAD6;stroke-width:0.926;stroke-miterlimit:10;}
	.st19{clip-path:url(#SVGID_00000072997806014073256590000017908146673840299164_);fill:#128FC3;}
	.st20{clip-path:url(#SVGID_00000072997806014073256590000017908146673840299164_);fill:#0080B7;}
	.st21{clip-path:url(#SVGID_00000072997806014073256590000017908146673840299164_);fill:#637180;}
	.st22{clip-path:url(#SVGID_00000072997806014073256590000017908146673840299164_);fill:#0F263A;}
	.st23{clip-path:url(#SVGID_00000072997806014073256590000017908146673840299164_);fill:none;stroke:#1D1D1B;stroke-miterlimit:10;}
	.st24{clip-path:url(#SVGID_00000072997806014073256590000017908146673840299164_);fill:#E9EEF2;}
	.st25{clip-path:url(#SVGID_00000072997806014073256590000017908146673840299164_);}
	.st26{clip-path:url(#SVGID_00000120533754030036250740000012122227055639423901_);fill:#ECEDEF;}
	
		.st27{clip-path:url(#SVGID_00000120533754030036250740000012122227055639423901_);fill:none;stroke:#BFCAD6;stroke-width:0.727;stroke-miterlimit:10;}
	.st28{clip-path:url(#SVGID_00000159445073686788790740000004721544971574254731_);fill:#ECEDEF;}
	
		.st29{clip-path:url(#SVGID_00000159445073686788790740000004721544971574254731_);fill:none;stroke:#0080B7;stroke-width:0.727;stroke-miterlimit:10;}
	.st30{clip-path:url(#SVGID_00000085240567847899198290000006854390309227271808_);fill:#ECEDEF;}
	
		.st31{clip-path:url(#SVGID_00000085240567847899198290000006854390309227271808_);fill:none;stroke:#DE555D;stroke-width:0.727;stroke-miterlimit:10;}
	.st32{clip-path:url(#SVGID_00000085240567847899198290000006854390309227271808_);fill:#0080B7;}
	.st33{clip-path:url(#SVGID_00000085240567847899198290000006854390309227271808_);fill:#128FC3;}
	.st34{clip-path:url(#SVGID_00000181768015252583192300000003876562240559234952_);fill:#ECEDEF;}
	.st35{clip-path:url(#SVGID_00000181768015252583192300000003876562240559234952_);fill:#BFCAD6;}
	.st36{clip-path:url(#SVGID_00000181768015252583192300000003876562240559234952_);fill:#0080B7;}
	.st37{clip-path:url(#SVGID_00000181768015252583192300000003876562240559234952_);fill:#DE555D;}
	.st38{clip-path:url(#SVGID_00000181768015252583192300000003876562240559234952_);fill:#FFFFFF;}
	.st39{clip-path:url(#SVGID_00000071548433232469195840000016697033060317216394_);fill:none;stroke:#BFCAD6;stroke-miterlimit:10;}
	.st40{clip-path:url(#SVGID_00000071548433232469195840000016697033060317216394_);fill:#0080B7;}
	.st41{clip-path:url(#SVGID_00000071548433232469195840000016697033060317216394_);fill:#FFFFFF;}
	.st42{clip-path:url(#SVGID_00000071548433232469195840000016697033060317216394_);fill:#128FC3;}
	.st43{clip-path:url(#SVGID_00000071548433232469195840000016697033060317216394_);fill:none;stroke:#128FC3;stroke-miterlimit:10;}
	.st44{clip-path:url(#SVGID_00000145044463259738111560000010375103830086778028_);fill:#0080B7;}
	.st45{clip-path:url(#SVGID_00000145044463259738111560000010375103830086778028_);fill:#637180;}
	.st46{clip-path:url(#SVGID_00000145044463259738111560000010375103830086778028_);fill:none;stroke:#BFCAD6;stroke-miterlimit:10;}
	
		.st47{clip-path:url(#SVGID_00000145044463259738111560000010375103830086778028_);fill:none;stroke:#BFCAD6;stroke-width:0.727;stroke-miterlimit:10;}
	.st48{fill:#637080;}
	.st49{fill:none;stroke:#637080;stroke-width:2;stroke-linecap:round;stroke-linejoin:round;stroke-miterlimit:10;}
	.st50{fill:none;stroke:#0081C1;stroke-width:2;stroke-miterlimit:10;}
	.st51{fill:#1B1C1D;}
	.st52{fill:none;stroke:#1B1C1D;stroke-width:0.25;stroke-linecap:round;stroke-linejoin:round;stroke-miterlimit:10;}
	.st53{fill:none;stroke:#1B1C1D;stroke-width:0.5;stroke-linecap:round;stroke-linejoin:round;stroke-miterlimit:10;}
	.st54{fill:none;stroke:#1B1C1D;stroke-width:0.75;stroke-linecap:round;stroke-linejoin:round;stroke-miterlimit:10;}
	.st55{fill:#D32828;}
	.st56{clip-path:url(#SVGID_00000095330315306132949020000007406890843344183687_);}
	.st57{fill:none;}
	.st58{opacity:0.5;}
	.st59{clip-path:url(#SVGID_00000108300049384414855850000002344582241739903395_);}
	.st60{fill:none;stroke:#637080;stroke-linecap:round;stroke-linejoin:round;}
	.st61{fill:none;stroke:#DA007E;stroke-width:0.5;stroke-miterlimit:10;}
	.st62{clip-path:url(#SVGID_00000162318611085598301300000011480068738008571523_);}
	.st63{clip-path:url(#SVGID_00000006679626198913762200000014973331986778822067_);}
	.st64{fill:#B9B9B9;}
	.st65{fill:none;stroke:#DA007E;stroke-miterlimit:10;}
	.st66{fill:#DA007E;}
	.st67{fill:#231F20;}
	.st68{fill:#606060;}
	.st69{opacity:0.5;fill:url(#SVGID_00000160161842935303252450000003722715782724741308_);}
</style>
<g id="Capa_1">
</g>
<g id="Capa_2">
	<g>
		<g id="XMLID_00000030455810057617248850000008421832821414252168_">
			<g>
				<g id="XMLID_00000123436175553047823210000006095763927863683501_">
					<path id="XMLID_00000119095536758520757270000010532869578945837193_" class="st10" d="M340.08,353.14l1.68-9.24
						c0.24-1.34,1.38-2.34,2.74-2.4c3.01-0.15,6-0.4,8.95-0.76c1.34-0.16,2.62,0.61,3.09,1.88l3.37,8.92
						c0.5,1.33,1.88,2.11,3.28,1.85c3.89-0.71,7.72-1.57,11.49-2.6c1.38-0.37,2.29-1.69,2.16-3.11l-0.88-9.42
						c-0.13-1.36,0.7-2.62,1.99-3.05c1.51-0.51,3.01-1.04,4.5-1.61c-7.75,1.55-15.76,2.36-23.96,2.36
						c-67.31,0-121.87-54.56-121.87-121.87c0-67.31,54.56-121.87,121.87-121.87c4.07,0,8.1,0.2,12.07,0.59l0.4-8.24
						c0.07-1.43-0.9-2.7-2.3-3.01c-3.86-0.86-7.79-1.57-11.77-2.1c-1.41-0.19-2.75,0.65-3.19,2l-2.98,9.1
						c-0.42,1.27-1.63,2.1-2.97,2.02c-2.78-0.16-6.39-0.27-8.7-0.33c-1.34-0.03-2.49-0.97-2.79-2.28l-2.12-9.28
						c-0.32-1.39-1.59-2.35-3.02-2.28c-4.03,0.2-8.02,0.58-11.95,1.12c-1.41,0.19-2.48,1.37-2.54,2.79l-0.42,9.52
						c-0.06,1.35-1.03,2.49-2.36,2.75c-2.81,0.56-5.59,1.21-8.33,1.96c-1.31,0.36-2.7-0.24-3.35-1.43l-4.53-8.33
						c-0.68-1.26-2.17-1.84-3.52-1.38c-3.82,1.28-7.57,2.73-11.23,4.32c-1.3,0.57-2.02,1.98-1.69,3.37l2.17,9.29
						c0.31,1.32-0.32,2.67-1.53,3.28c-2.53,1.28-5,2.65-7.43,4.1c-1.17,0.7-2.66,0.5-3.61-0.47l-6.6-6.8
						c-1-1.02-2.58-1.18-3.77-0.38c-3.33,2.26-6.57,4.67-9.68,7.21c-1.1,0.9-1.41,2.45-0.72,3.7l4.59,8.35
						c0.65,1.19,0.41,2.66-0.59,3.58c-2.07,1.9-4.08,3.86-6.02,5.9c-0.94,0.98-2.42,1.19-3.6,0.51l-8.21-4.77
						c-1.23-0.72-2.8-0.44-3.72,0.64c-2.61,3.07-5.08,6.26-7.42,9.55c-0.82,1.16-0.7,2.75,0.3,3.76l6.66,6.79
						c0.95,0.97,1.11,2.46,0.39,3.61c-1.48,2.37-2.89,4.8-4.21,7.28c-0.64,1.19-2.01,1.8-3.32,1.46l-9.21-2.39
						c-1.38-0.36-2.81,0.33-3.41,1.62c-1.68,3.65-3.21,7.38-4.58,11.19c-0.48,1.34,0.06,2.84,1.3,3.55l8.24,4.74
						c1.18,0.68,1.73,2.07,1.35,3.37c-0.79,2.68-1.49,5.4-2.09,8.16c-0.29,1.32-1.45,2.27-2.81,2.3l-9.51,0.19
						c-1.42,0.03-2.62,1.07-2.85,2.48c-0.63,3.95-1.09,7.95-1.38,12c-0.1,1.42,0.83,2.72,2.21,3.07l9.25,2.35
						c1.3,0.33,2.21,1.49,2.21,2.83c0.01,2.35,0.06,5.93,0.15,8.53c0.05,1.33-0.81,2.53-2.09,2.92l-9.16,2.76
						c-1.36,0.41-2.23,1.74-2.07,3.15c0.45,4.03,1.07,8,1.86,11.92c0.28,1.4,1.53,2.4,2.96,2.36l9.47-0.23
						c1.36-0.03,2.56,0.87,2.91,2.19c0.72,2.76,1.54,5.48,2.45,8.16c0.43,1.28-0.07,2.69-1.21,3.41l-8.05,5.12
						c-1.2,0.76-1.68,2.27-1.15,3.59c1.51,3.73,3.18,7.38,5,10.93c0.65,1.27,2.12,1.9,3.48,1.48l9.06-2.78
						c1.3-0.4,2.7,0.15,3.39,1.32c1.45,2.47,2.98,4.89,4.6,7.26c0.76,1.12,0.66,2.61-0.24,3.61l-6.37,7.09
						c-0.95,1.06-1,2.64-0.14,3.77c2.44,3.16,5.02,6.22,7.73,9.16c0.97,1.05,2.55,1.26,3.76,0.49l7.96-5.12
						c1.15-0.74,2.65-0.59,3.63,0.36c2.08,2.01,4.23,3.95,6.44,5.82c1.03,0.87,1.34,2.33,0.74,3.54l-4.22,8.56
						c-0.63,1.27-0.26,2.81,0.88,3.66c3.18,2.38,6.47,4.62,9.86,6.72c1.22,0.76,2.8,0.53,3.75-0.54l6.28-7.06
						c0.91-1.02,2.39-1.28,3.59-0.63c2.57,1.39,5.19,2.7,7.87,3.92c1.23,0.56,1.92,1.88,1.67,3.21l-1.76,9.38
						c-0.26,1.4,0.51,2.78,1.84,3.29c3.68,1.42,7.43,2.68,11.25,3.78c1.37,0.4,2.84-0.25,3.46-1.54l4.15-8.51
						c0.6-1.22,1.96-1.88,3.28-1.58c2.88,0.65,5.79,1.2,8.74,1.65c1.34,0.2,2.36,1.3,2.48,2.64l0.84,9.46
						c0.13,1.43,1.27,2.56,2.7,2.67c3.74,0.28,8.75,0.46,11.72,0.55C338.55,355.6,339.82,354.57,340.08,353.14z"/>
				</g>
			</g>
		</g>
		<g>
			<g>
				<path class="st10" d="M304.99,154.65h27.59v52l48.64-52h36.08l-55.71,58.19l60.49,67.03h-38.55l-50.94-59.43v59.43h-27.59
					V154.65z"/>
				<path class="st10" d="M484.33,154.65h22.81l54.48,125.22H530.5l-10.79-26.53h-48.64l-10.44,26.53h-30.42L484.33,154.65z
					 M494.94,191.08l-15.21,38.91h30.6L494.94,191.08z"/>
				<path class="st10" d="M626.89,154.65h22.81l54.48,125.22h-31.13l-10.79-26.53h-48.64l-10.44,26.53h-30.42L626.89,154.65z
					 M637.5,191.08l-15.21,38.91h30.6L637.5,191.08z"/>
				<path class="st10" d="M728.23,154.65h46.52c6.48,0,12.62,0.59,18.39,1.77c5.78,1.18,10.82,3.22,15.12,6.1
					c4.3,2.89,7.72,6.78,10.26,11.67c2.53,4.9,3.8,11.06,3.8,18.48c0,7.31-1.18,13.44-3.54,18.4c-2.36,4.95-5.6,8.9-9.73,11.85
					c-4.13,2.95-9.02,5.04-14.68,6.28c-5.66,1.24-11.79,1.86-18.39,1.86h-20.16v48.82h-27.59V154.65z M755.82,207.71h18.4
					c2.47,0,4.86-0.23,7.16-0.71c2.3-0.47,4.36-1.27,6.19-2.39c1.83-1.12,3.3-2.65,4.42-4.6c1.12-1.94,1.68-4.39,1.68-7.34
					c0-3.18-0.74-5.75-2.21-7.69c-1.48-1.94-3.36-3.45-5.66-4.51c-2.3-1.06-4.86-1.74-7.69-2.04c-2.83-0.29-5.55-0.44-8.14-0.44
					h-14.15V207.71z"/>
				<path class="st10" d="M879.28,154.65h22.81l54.48,125.22h-31.13l-10.79-26.53h-48.64l-10.44,26.53h-30.42L879.28,154.65z
					 M889.89,191.08l-15.21,38.91h30.6L889.89,191.08z"/>
			</g>
		</g>
		<g>
			<path class="st48" d="M440.79,348.19c-1.64-0.73-2.91-1.75-3.84-3.06c-0.93-1.3-1.41-2.81-1.44-4.52h4.36
				c0.15,1.47,0.76,2.7,1.82,3.71c1.06,1,2.61,1.51,4.65,1.51c1.95,0,3.48-0.49,4.6-1.46c1.13-0.97,1.69-2.23,1.69-3.75
				c0-1.2-0.33-2.17-0.99-2.92c-0.66-0.75-1.48-1.32-2.47-1.71c-0.99-0.39-2.32-0.81-4-1.26c-2.07-0.54-3.72-1.08-4.97-1.62
				c-1.24-0.54-2.31-1.39-3.19-2.54c-0.89-1.15-1.33-2.7-1.33-4.65c0-1.71,0.43-3.22,1.3-4.54c0.87-1.32,2.09-2.34,3.66-3.05
				c1.57-0.72,3.38-1.08,5.41-1.08c2.94,0,5.34,0.73,7.21,2.2c1.87,1.47,2.93,3.41,3.17,5.84h-4.49c-0.15-1.2-0.78-2.26-1.89-3.17
				c-1.11-0.91-2.58-1.37-4.4-1.37c-1.71,0-3.1,0.44-4.18,1.33c-1.08,0.88-1.62,2.12-1.62,3.71c0,1.14,0.32,2.07,0.97,2.79
				c0.64,0.72,1.44,1.27,2.38,1.64c0.94,0.38,2.27,0.8,3.98,1.28c2.07,0.57,3.73,1.13,4.99,1.69c1.26,0.55,2.34,1.41,3.24,2.56
				c0.9,1.15,1.35,2.72,1.35,4.7c0,1.53-0.4,2.96-1.21,4.32c-0.81,1.35-2,2.44-3.59,3.28c-1.59,0.84-3.46,1.26-5.62,1.26
				C444.27,349.29,442.42,348.93,440.79,348.19z"/>
			<path class="st48" d="M462.92,319.54c-0.54-0.54-0.81-1.2-0.81-1.98c0-0.78,0.27-1.44,0.81-1.98c0.54-0.54,1.2-0.81,1.98-0.81
				c0.75,0,1.38,0.27,1.91,0.81c0.52,0.54,0.78,1.2,0.78,1.98c0,0.78-0.26,1.44-0.78,1.98c-0.53,0.54-1.16,0.81-1.91,0.81
				C464.12,320.35,463.46,320.08,462.92,319.54z M466.88,324.35v24.63h-4.09v-24.63H466.88z"/>
			<path class="st48" d="M508.58,325.09c1.5,0.79,2.68,1.98,3.55,3.57c0.87,1.59,1.3,3.52,1.3,5.8v14.52h-4.05v-13.93
				c0-2.46-0.6-4.34-1.82-5.64c-1.21-1.3-2.85-1.95-4.92-1.95c-2.13,0-3.82,0.68-5.08,2.04c-1.26,1.36-1.89,3.33-1.89,5.91v13.57
				h-4.04v-13.93c0-2.46-0.61-4.34-1.82-5.64c-1.21-1.3-2.85-1.95-4.92-1.95c-2.13,0-3.82,0.68-5.08,2.04
				c-1.26,1.36-1.89,3.33-1.89,5.91v13.57h-4.09v-24.63h4.09v3.55c0.81-1.29,1.89-2.28,3.26-2.96c1.36-0.69,2.87-1.03,4.52-1.03
				c2.07,0,3.89,0.46,5.48,1.39c1.59,0.93,2.77,2.29,3.55,4.09c0.69-1.74,1.83-3.08,3.42-4.04c1.59-0.96,3.36-1.44,5.3-1.44
				C505.37,323.9,507.08,324.3,508.58,325.09z"/>
			<path class="st48" d="M527.84,325.36c1.6-0.95,3.47-1.42,5.59-1.42c2.19,0,4.17,0.53,5.95,1.57c1.78,1.05,3.19,2.52,4.2,4.43
				s1.53,4.11,1.53,6.63c0,2.49-0.51,4.7-1.53,6.65c-1.02,1.95-2.42,3.46-4.2,4.54c-1.78,1.08-3.77,1.62-5.95,1.62
				c-2.1,0-3.95-0.47-5.55-1.41s-2.82-2.12-3.66-3.53v16.22h-4.09v-36.31h4.09v4.54C525.03,327.48,526.23,326.3,527.84,325.36z
				 M539.81,331.72c-0.75-1.38-1.76-2.43-3.03-3.14c-1.27-0.72-2.67-1.08-4.2-1.08c-1.5,0-2.88,0.37-4.16,1.1
				c-1.27,0.74-2.29,1.8-3.06,3.19c-0.76,1.39-1.14,3-1.14,4.83c0,1.86,0.38,3.48,1.14,4.87c0.77,1.39,1.78,2.46,3.06,3.19
				c1.27,0.73,2.66,1.1,4.16,1.1c1.53,0,2.93-0.37,4.2-1.1c1.27-0.73,2.28-1.8,3.03-3.19c0.75-1.39,1.12-3.03,1.12-4.92
				C540.93,334.71,540.56,333.1,539.81,331.72z"/>
			<path class="st48" d="M554.6,315.72v33.26h-4.09v-33.26H554.6z"/>
			<path class="st48" d="M561.7,319.54c-0.54-0.54-0.81-1.2-0.81-1.98c0-0.78,0.27-1.44,0.81-1.98c0.54-0.54,1.2-0.81,1.98-0.81
				c0.75,0,1.38,0.27,1.91,0.81c0.52,0.54,0.78,1.2,0.78,1.98c0,0.78-0.26,1.44-0.78,1.98c-0.53,0.54-1.16,0.81-1.91,0.81
				C562.89,320.35,562.23,320.08,561.7,319.54z M565.65,324.35v24.63h-4.09v-24.63H565.65z"/>
			<path class="st48" d="M582.64,327.72h-5.17v21.26h-4.09v-21.26h-3.19v-3.37h3.19v-1.75c0-2.75,0.71-4.77,2.13-6.05
				c1.42-1.27,3.71-1.91,6.86-1.91v3.42c-1.8,0-3.06,0.35-3.8,1.06c-0.73,0.71-1.1,1.87-1.1,3.48v1.75h5.17V327.72z"/>
			<path class="st48" d="M587.54,319.54c-0.54-0.54-0.81-1.2-0.81-1.98c0-0.78,0.27-1.44,0.81-1.98s1.2-0.81,1.98-0.81
				c0.75,0,1.38,0.27,1.91,0.81c0.52,0.54,0.78,1.2,0.78,1.98c0,0.78-0.26,1.44-0.78,1.98c-0.53,0.54-1.16,0.81-1.91,0.81
				C588.73,320.35,588.07,320.08,587.54,319.54z M591.49,324.35v24.63h-4.09v-24.63H591.49z"/>
			<path class="st48" d="M598.46,329.94c1.02-1.9,2.43-3.38,4.25-4.43c1.81-1.05,3.89-1.57,6.22-1.57c3.02,0,5.52,0.74,7.48,2.2
				c1.96,1.47,3.26,3.51,3.89,6.11h-4.4c-0.42-1.5-1.23-2.68-2.45-3.55c-1.21-0.87-2.72-1.31-4.52-1.31c-2.34,0-4.23,0.8-5.67,2.41
				c-1.43,1.6-2.15,3.87-2.15,6.81c0,2.96,0.72,5.26,2.15,6.88c1.44,1.62,3.33,2.43,5.67,2.43c1.79,0,3.29-0.42,4.49-1.26
				c1.2-0.84,2.02-2.04,2.47-3.59h4.4c-0.66,2.51-1.98,4.53-3.96,6.04c-1.98,1.51-4.45,2.27-7.41,2.27c-2.34,0-4.41-0.52-6.22-1.57
				c-1.81-1.05-3.23-2.53-4.25-4.45c-1.02-1.92-1.53-4.16-1.53-6.74C596.93,334.07,597.44,331.85,598.46,329.94z"/>
			<path class="st48" d="M625.73,329.94c1.02-1.9,2.42-3.38,4.2-4.43c1.78-1.05,3.77-1.57,5.95-1.57c2.16,0,4.03,0.46,5.62,1.39
				c1.59,0.93,2.77,2.1,3.55,3.5v-4.49h4.14v24.63h-4.14v-4.58c-0.81,1.44-2.02,2.63-3.62,3.57c-1.6,0.94-3.47,1.41-5.59,1.41
				c-2.19,0-4.17-0.54-5.93-1.62c-1.77-1.08-3.16-2.59-4.18-4.54c-1.02-1.95-1.53-4.16-1.53-6.65
				C624.21,334.06,624.72,331.85,625.73,329.94z M643.93,331.76c-0.75-1.38-1.76-2.43-3.03-3.17c-1.28-0.73-2.67-1.1-4.2-1.1
				c-1.53,0-2.92,0.36-4.18,1.08c-1.26,0.72-2.26,1.77-3.01,3.14c-0.75,1.38-1.12,3-1.12,4.85c0,1.89,0.37,3.53,1.12,4.92
				c0.75,1.39,1.75,2.46,3.01,3.19c1.26,0.73,2.65,1.1,4.18,1.1c1.53,0,2.93-0.37,4.2-1.1c1.27-0.73,2.28-1.8,3.03-3.19
				c0.75-1.39,1.12-3.02,1.12-4.87C645.06,334.76,644.68,333.14,643.93,331.76z"/>
			<path class="st48" d="M675.39,326.62c1.86,1.81,2.79,4.42,2.79,7.84v14.52h-4.04v-13.93c0-2.46-0.61-4.34-1.84-5.64
				c-1.23-1.3-2.91-1.95-5.03-1.95c-2.16,0-3.87,0.67-5.14,2.02c-1.28,1.35-1.91,3.31-1.91,5.89v13.62h-4.09v-24.63h4.09v3.5
				c0.81-1.26,1.91-2.23,3.3-2.92c1.39-0.69,2.93-1.03,4.61-1.03C671.11,323.9,673.53,324.81,675.39,326.62z"/>
			<path class="st48" d="M684.87,329.94c1.02-1.9,2.42-3.38,4.2-4.43c1.78-1.05,3.78-1.57,6-1.57c1.92,0,3.7,0.44,5.35,1.33
				c1.65,0.89,2.9,2.05,3.77,3.48v-13.03h4.14v33.26h-4.14v-4.63c-0.81,1.47-2.01,2.67-3.6,3.62s-3.44,1.41-5.57,1.41
				c-2.19,0-4.17-0.54-5.95-1.62c-1.78-1.08-3.19-2.59-4.2-4.54c-1.02-1.95-1.53-4.16-1.53-6.65
				C683.35,334.06,683.86,331.85,684.87,329.94z M703.07,331.76c-0.75-1.38-1.76-2.43-3.03-3.17c-1.28-0.73-2.67-1.1-4.2-1.1
				c-1.53,0-2.92,0.36-4.18,1.08c-1.26,0.72-2.26,1.77-3.01,3.14c-0.75,1.38-1.12,3-1.12,4.85c0,1.89,0.37,3.53,1.12,4.92
				c0.75,1.39,1.75,2.46,3.01,3.19s2.65,1.1,4.18,1.1c1.53,0,2.93-0.37,4.2-1.1c1.27-0.73,2.28-1.8,3.03-3.19
				c0.75-1.39,1.12-3.02,1.12-4.87C704.2,334.76,703.82,333.14,703.07,331.76z"/>
			<path class="st48" d="M719.72,347.81c-1.87-1.05-3.34-2.54-4.4-4.47c-1.07-1.93-1.59-4.17-1.59-6.72c0-2.52,0.55-4.74,1.64-6.67
				c1.09-1.93,2.58-3.42,4.47-4.45c1.89-1.03,4-1.55,6.34-1.55s4.45,0.52,6.34,1.55c1.89,1.03,3.38,2.51,4.47,4.43
				c1.09,1.92,1.64,4.15,1.64,6.7c0,2.55-0.56,4.79-1.68,6.72c-1.12,1.93-2.65,3.43-4.56,4.47c-1.92,1.05-4.04,1.57-6.38,1.57
				C723.68,349.38,721.6,348.86,719.72,347.81z M730.13,344.75c1.29-0.69,2.33-1.72,3.12-3.1c0.79-1.38,1.19-3.06,1.19-5.03
				s-0.39-3.65-1.17-5.03c-0.78-1.38-1.8-2.4-3.06-3.08c-1.26-0.68-2.62-1.01-4.09-1.01c-1.5,0-2.87,0.34-4.11,1.01
				c-1.24,0.68-2.24,1.7-2.99,3.08c-0.75,1.38-1.12,3.06-1.12,5.03c0,2.01,0.37,3.7,1.1,5.08c0.73,1.38,1.72,2.41,2.94,3.08
				c1.23,0.68,2.57,1.01,4.04,1.01C727.46,345.78,728.84,345.44,730.13,344.75z"/>
			<path class="st48" d="M763.72,325.36c1.6-0.95,3.47-1.42,5.59-1.42c2.19,0,4.17,0.53,5.95,1.57c1.78,1.05,3.19,2.52,4.2,4.43
				c1.02,1.9,1.53,4.11,1.53,6.63c0,2.49-0.51,4.7-1.53,6.65c-1.02,1.95-2.42,3.46-4.2,4.54c-1.78,1.08-3.77,1.62-5.95,1.62
				c-2.1,0-3.95-0.47-5.55-1.41c-1.6-0.94-2.82-2.12-3.66-3.53v16.22h-4.09v-36.31h4.09v4.54
				C760.91,327.48,762.11,326.3,763.72,325.36z M775.69,331.72c-0.75-1.38-1.76-2.43-3.03-3.14c-1.27-0.72-2.67-1.08-4.2-1.08
				c-1.5,0-2.88,0.37-4.16,1.1c-1.27,0.74-2.29,1.8-3.06,3.19c-0.76,1.39-1.14,3-1.14,4.83c0,1.86,0.38,3.48,1.14,4.87
				c0.77,1.39,1.78,2.46,3.06,3.19s2.66,1.1,4.16,1.1c1.53,0,2.93-0.37,4.2-1.1s2.28-1.8,3.03-3.19c0.75-1.39,1.12-3.03,1.12-4.92
				C776.82,334.71,776.44,333.1,775.69,331.72z"/>
			<path class="st48" d="M793.56,325.07c1.33-0.78,2.96-1.17,4.87-1.17v4.22h-1.08c-4.58,0-6.87,2.49-6.87,7.46v13.39h-4.09v-24.63
				h4.09v4C791.2,326.94,792.22,325.85,793.56,325.07z"/>
			<path class="st48" d="M807.62,347.81c-1.87-1.05-3.34-2.54-4.4-4.47c-1.07-1.93-1.59-4.17-1.59-6.72c0-2.52,0.55-4.74,1.64-6.67
				c1.09-1.93,2.59-3.42,4.47-4.45c1.89-1.03,4-1.55,6.34-1.55c2.34,0,4.45,0.52,6.34,1.55c1.89,1.03,3.38,2.51,4.47,4.43
				c1.09,1.92,1.64,4.15,1.64,6.7c0,2.55-0.56,4.79-1.68,6.72c-1.12,1.93-2.65,3.43-4.56,4.47s-4.04,1.57-6.38,1.57
				C811.59,349.38,809.5,348.86,807.62,347.81z M818.03,344.75c1.29-0.69,2.33-1.72,3.12-3.1c0.79-1.38,1.19-3.06,1.19-5.03
				s-0.39-3.65-1.17-5.03c-0.78-1.38-1.8-2.4-3.06-3.08c-1.26-0.68-2.62-1.01-4.09-1.01c-1.5,0-2.87,0.34-4.11,1.01
				c-1.24,0.68-2.24,1.7-2.99,3.08c-0.75,1.38-1.12,3.06-1.12,5.03c0,2.01,0.37,3.7,1.1,5.08c0.73,1.38,1.72,2.41,2.94,3.08
				c1.23,0.68,2.57,1.01,4.04,1.01C815.36,345.78,816.74,345.44,818.03,344.75z"/>
			<path class="st48" d="M831.91,329.94c1.02-1.9,2.43-3.38,4.25-4.43c1.81-1.05,3.89-1.57,6.23-1.57c3.02,0,5.52,0.74,7.48,2.2
				c1.96,1.47,3.26,3.51,3.89,6.11h-4.4c-0.42-1.5-1.23-2.68-2.45-3.55c-1.21-0.87-2.72-1.31-4.52-1.31c-2.34,0-4.23,0.8-5.67,2.41
				c-1.43,1.6-2.15,3.87-2.15,6.81c0,2.96,0.72,5.26,2.15,6.88c1.44,1.62,3.33,2.43,5.67,2.43c1.79,0,3.29-0.42,4.49-1.26
				c1.2-0.84,2.02-2.04,2.47-3.59h4.4c-0.66,2.51-1.98,4.53-3.96,6.04c-1.98,1.51-4.45,2.27-7.41,2.27c-2.34,0-4.41-0.52-6.23-1.57
				c-1.81-1.05-3.23-2.53-4.25-4.45s-1.53-4.16-1.53-6.74C830.39,334.07,830.89,331.85,831.91,329.94z"/>
			<path class="st48" d="M881.53,338.19h-19.68c0.15,2.43,0.98,4.32,2.49,5.68c1.51,1.36,3.35,2.05,5.51,2.05
				c1.77,0,3.24-0.41,4.42-1.23s2.02-1.92,2.5-3.3h4.4c-0.66,2.37-1.98,4.29-3.96,5.77c-1.98,1.49-4.43,2.23-7.37,2.23
				c-2.34,0-4.43-0.52-6.27-1.57c-1.85-1.05-3.29-2.54-4.34-4.47c-1.05-1.93-1.57-4.17-1.57-6.72c0-2.54,0.51-4.78,1.53-6.7
				c1.02-1.92,2.45-3.39,4.29-4.43c1.84-1.03,3.96-1.55,6.36-1.55c2.33,0,4.4,0.51,6.2,1.53c1.8,1.02,3.18,2.42,4.16,4.2
				c0.97,1.78,1.46,3.8,1.46,6.05C881.66,336.5,881.61,337.32,881.53,338.19z M876.4,330.84c-0.69-1.12-1.63-1.98-2.81-2.56
				c-1.18-0.58-2.5-0.88-3.93-0.88c-2.07,0-3.83,0.66-5.28,1.98c-1.45,1.32-2.28,3.15-2.49,5.48h15.55
				C877.43,333.31,877.09,331.97,876.4,330.84z"/>
			<path class="st48" d="M890.69,348.41c-1.5-0.64-2.68-1.54-3.55-2.69c-0.87-1.15-1.35-2.48-1.44-3.98h4.22
				c0.12,1.23,0.7,2.23,1.73,3.01c1.03,0.78,2.39,1.17,4.07,1.17c1.56,0,2.79-0.34,3.68-1.03c0.9-0.69,1.35-1.56,1.35-2.61
				c0-1.08-0.48-1.88-1.44-2.41c-0.96-0.52-2.44-1.04-4.45-1.55c-1.83-0.48-3.32-0.96-4.47-1.46c-1.15-0.5-2.14-1.23-2.96-2.2
				c-0.82-0.97-1.24-2.26-1.24-3.84c0-1.26,0.38-2.41,1.13-3.46c0.75-1.05,1.81-1.88,3.19-2.49s2.95-0.92,4.72-0.92
				c2.73,0,4.93,0.69,6.6,2.07c1.68,1.38,2.58,3.26,2.7,5.66h-4.09c-0.09-1.29-0.61-2.32-1.55-3.1c-0.95-0.78-2.21-1.17-3.8-1.17
				c-1.47,0-2.64,0.32-3.5,0.95c-0.87,0.63-1.3,1.45-1.3,2.47c0,0.81,0.26,1.48,0.79,2c0.52,0.52,1.18,0.94,1.98,1.26
				c0.79,0.31,1.89,0.66,3.3,1.06c1.77,0.48,3.21,0.95,4.32,1.41c1.11,0.46,2.06,1.16,2.85,2.09c0.79,0.93,1.2,2.14,1.23,3.64
				c0,1.35-0.37,2.56-1.12,3.64c-0.75,1.08-1.8,1.93-3.17,2.54c-1.36,0.61-2.93,0.92-4.7,0.92
				C893.88,349.38,892.19,349.06,890.69,348.41z"/>
			<path class="st48" d="M914.98,347.81c-1.87-1.05-3.34-2.54-4.4-4.47c-1.07-1.93-1.59-4.17-1.59-6.72c0-2.52,0.55-4.74,1.64-6.67
				c1.09-1.93,2.59-3.42,4.47-4.45c1.89-1.03,4-1.55,6.34-1.55c2.34,0,4.45,0.52,6.34,1.55c1.89,1.03,3.38,2.51,4.47,4.43
				c1.09,1.92,1.64,4.15,1.64,6.7c0,2.55-0.56,4.79-1.68,6.72c-1.12,1.93-2.65,3.43-4.56,4.47s-4.04,1.57-6.38,1.57
				C918.94,349.38,916.85,348.86,914.98,347.81z M925.39,344.75c1.29-0.69,2.33-1.72,3.12-3.1c0.79-1.38,1.19-3.06,1.19-5.03
				s-0.39-3.65-1.17-5.03c-0.78-1.38-1.8-2.4-3.06-3.08c-1.26-0.68-2.62-1.01-4.09-1.01c-1.5,0-2.87,0.34-4.11,1.01
				c-1.24,0.68-2.24,1.7-2.99,3.08c-0.75,1.38-1.12,3.06-1.12,5.03c0,2.01,0.37,3.7,1.1,5.08c0.73,1.38,1.72,2.41,2.94,3.08
				c1.23,0.68,2.57,1.01,4.04,1.01C922.72,345.78,924.1,345.44,925.39,344.75z"/>
			<path class="st48" d="M942.91,348.41c-1.5-0.64-2.68-1.54-3.55-2.69c-0.87-1.15-1.35-2.48-1.44-3.98h4.22
				c0.12,1.23,0.7,2.23,1.73,3.01c1.03,0.78,2.39,1.17,4.07,1.17c1.56,0,2.79-0.34,3.68-1.03c0.9-0.69,1.35-1.56,1.35-2.61
				c0-1.08-0.48-1.88-1.44-2.41c-0.96-0.52-2.44-1.04-4.45-1.55c-1.83-0.48-3.32-0.96-4.47-1.46c-1.15-0.5-2.14-1.23-2.96-2.2
				c-0.82-0.97-1.24-2.26-1.24-3.84c0-1.26,0.38-2.41,1.13-3.46c0.75-1.05,1.81-1.88,3.19-2.49s2.95-0.92,4.72-0.92
				c2.73,0,4.93,0.69,6.6,2.07c1.68,1.38,2.58,3.26,2.7,5.66h-4.09c-0.09-1.29-0.61-2.32-1.55-3.1c-0.95-0.78-2.21-1.17-3.8-1.17
				c-1.47,0-2.64,0.32-3.5,0.95c-0.87,0.63-1.3,1.45-1.3,2.47c0,0.81,0.26,1.48,0.79,2c0.52,0.52,1.18,0.94,1.98,1.26
				c0.79,0.31,1.89,0.66,3.3,1.06c1.77,0.48,3.21,0.95,4.32,1.41c1.11,0.46,2.06,1.16,2.85,2.09c0.79,0.93,1.2,2.14,1.23,3.64
				c0,1.35-0.37,2.56-1.12,3.64c-0.75,1.08-1.8,1.93-3.17,2.54c-1.36,0.61-2.93,0.92-4.7,0.92
				C946.1,349.38,944.41,349.06,942.91,348.41z"/>
		</g>
	</g>
</g>
</svg>
