<svg xmlns="http://www.w3.org/2000/svg" width="201" height="38.709" viewBox="0 0 201 38.709"><defs><style>.a{fill:#0070b7;}.b{fill:#4f5e6d;}</style></defs><g transform="translate(22448 16830.725)"><g transform="translate(-22448 -16830.725)"><path class="a" d="M131.841,252.378c0,4.435,3.187,8.311,7.917,8.311,4.928,0,7.819-4.271,7.819-8.278,0-4.074-2.891-8.344-7.851-8.344-4.862,0-7.884,4.008-7.884,8.279Zm-4.895.2a12.405,12.405,0,1,1,0,.033Z" transform="translate(-126.946 -239.764)"/><path class="a" d="M211.413,258.389h4.041v2.267a5.942,5.942,0,0,1,5.256-2.825,5.856,5.856,0,0,1,4.435,1.84,8.339,8.339,0,0,1,1.084,1.643,7.44,7.44,0,0,1,1.314-1.708,7.056,7.056,0,0,1,9.4.033c1.643,1.708,1.971,3.187,1.971,6.9v9.888h-4.3V266.7a6.131,6.131,0,0,0-.723-3.351,2.867,2.867,0,0,0-2.825-1.478,3.379,3.379,0,0,0-3.121,1.643,5.709,5.709,0,0,0-.624,3.022v9.888h-4.3v-9.888a6.565,6.565,0,0,0-.558-2.99,3.179,3.179,0,0,0-2.957-1.675,3.359,3.359,0,0,0-3.088,1.675,6.471,6.471,0,0,0-.69,3.121v9.757h-4.3Z" transform="translate(-182.539 -251.654)"/><path class="a" d="M304.046,247.383h4.3v18.035h-4.3Zm0-6.274h4.3v3.844h-4.3Z" transform="translate(-243.507 -240.649)"/><path class="a" d="M345.069,269.854a9.642,9.642,0,1,1,0-4.763h-4.4a5.372,5.372,0,0,0-8.706-1.709,5.891,5.891,0,0,0-1.478,4.008,5.258,5.258,0,0,0,5.322,5.552,5.108,5.108,0,0,0,4.862-3.088Z" transform="translate(-258.053 -251.655)"/><path class="a" d="M390.818,258.389h4.074v2.365a5.156,5.156,0,0,1,4.993-2.924v4.336h-.2c-3.022,0-4.566,1.413-4.566,4.533v9.724h-4.3Z" transform="translate(-300.617 -251.654)"/><path class="a" d="M423.469,267.486a5.538,5.538,0,1,0,0-.033Zm-4.3-.066a9.576,9.576,0,1,1,0,.033Z" transform="translate(-319.274 -251.718)"/><path class="a" d="M485.374,258.388h4.04c0,.788,0,1.544-.032,2.4A5.879,5.879,0,0,1,495,257.829c5.88.033,7,4.533,7,7.72v10.874h-4.3v-9.79c0-2.694-.887-4.764-3.909-4.764-3.055.033-4.106,2.07-4.106,4.6v9.954h-4.3Z" transform="translate(-362.85 -251.653)"/><path class="a" d="M547.066,241.109h4.894v20.006h7.983v4.3H547.066Z" transform="translate(-403.453 -240.65)"/><path class="a" d="M593.072,267.488a5.413,5.413,0,0,0,5.486,5.486,5.105,5.105,0,0,0,4.8-2.891,6.194,6.194,0,0,0,.69-2.53,5.617,5.617,0,0,0-.493-2.53,5.291,5.291,0,0,0-5.026-3.186,5.426,5.426,0,0,0-5.453,5.617Zm15.243,8.935h-4.3v-2.6a6.711,6.711,0,0,1-6.077,3.153c-5.782,0-9.165-4.5-9.165-9.592,0-5.683,4.106-9.56,9.165-9.56a6.734,6.734,0,0,1,6.077,3.187v-2.628h4.3Z" transform="translate(-430.9 -251.654)"/><path class="a" d="M673.45,256.352a5.438,5.438,0,1,0-10.874.033,5.327,5.327,0,0,0,5.355,5.584,5.434,5.434,0,0,0,5.519-5.584Zm-15.013-15.243h4.3v8.508a7.814,7.814,0,0,1,6.012-2.792c4.271,0,9,3.121,9,9.494,0,6.11-4.271,9.658-9.2,9.658a6.648,6.648,0,0,1-5.979-3.153v2.6h-4.139Z" transform="translate(-476.753 -240.649)"/></g><g transform="translate(-22445.949 -16797.299)"><path class="b" d="M132.325,340.314h.584l1.861,2.787,1.861-2.787h.584v5.108h-.577v-4.138l-1.861,2.736h-.029l-1.861-2.729v4.13h-.562Z" transform="translate(-132.325 -340.226)"/><path class="b" d="M163.673,340.314h3.693v.525h-3.116v1.744h2.788v.525h-2.788V344.9H167.4v.525h-3.729Z" transform="translate(-152.957 -340.226)"/><path class="b" d="M192.566,344.89a1.977,1.977,0,0,0,2.116-2.007v-.015a1.988,1.988,0,0,0-2.116-2.021h-1.2v4.043Zm-1.773-4.576h1.773a2.546,2.546,0,0,1,2.715,2.54v.014a2.557,2.557,0,0,1-2.715,2.554h-1.773Z" transform="translate(-170.806 -340.226)"/><rect class="b" width="0.576" height="5.108" transform="translate(30.126 0.088)"/><path class="b" d="M238.669,342.713V342.7a2.573,2.573,0,0,1,2.583-2.641,2.659,2.659,0,0,1,1.992.81l-.394.423a2.221,2.221,0,0,0-1.605-.7,2,2,0,0,0-1.978,2.094v.014a2.015,2.015,0,0,0,1.978,2.109,2.216,2.216,0,0,0,1.649-.737l.379.372a2.66,2.66,0,0,1-2.043.9,2.548,2.548,0,0,1-2.561-2.627" transform="translate(-202.317 -340.057)"/><rect class="b" width="0.577" height="5.108" transform="translate(46.397 0.088)"/><path class="b" d="M286.928,340.314h.54l3.218,4.094v-4.094h.562v5.108h-.46l-3.3-4.189v4.189h-.562Z" transform="translate(-234.079 -340.226)"/><path class="b" d="M319.081,343.483l-1.16-2.605-1.168,2.605Zm-1.423-3.277h.54l2.328,5.145h-.62l-.6-1.35h-2.781l-.606,1.35h-.591Z" transform="translate(-252.772 -340.155)"/><path class="b" d="M367.351,343.094c.847,0,1.4-.452,1.4-1.124v-.015c0-.73-.547-1.109-1.372-1.109h-1.292v2.247Zm-1.839-2.78h1.912c1.153,0,1.912.613,1.912,1.62v.015c0,1.1-.92,1.671-2.007,1.671h-1.241v1.8h-.576Z" transform="translate(-285.8 -340.226)"/><path class="b" d="M392.589,340.314h3.693v.525h-3.116v1.744h2.788v.525h-2.788V344.9h3.152v.525h-3.729Z" transform="translate(-303.621 -340.226)"/><path class="b" d="M421.854,342.919c.766,0,1.314-.394,1.314-1.051v-.015c0-.628-.482-1.007-1.307-1.007h-1.576v2.072Zm-2.145-2.605h2.2a2.014,2.014,0,0,1,1.452.511,1.411,1.411,0,0,1,.394,1.007v.015a1.5,1.5,0,0,1-1.387,1.489l1.569,2.087h-.708l-1.481-1.985h-1.46v1.985h-.576Z" transform="translate(-321.47 -340.226)"/><path class="b" d="M446.979,344.537l.358-.423a2.433,2.433,0,0,0,1.751.722c.686,0,1.138-.365,1.138-.868v-.015c0-.474-.255-.744-1.328-.97-1.175-.256-1.715-.635-1.715-1.474v-.015a1.508,1.508,0,0,1,1.678-1.393,2.668,2.668,0,0,1,1.8.627l-.336.445a2.243,2.243,0,0,0-1.474-.554c-.665,0-1.088.365-1.088.825v.014c0,.482.263.751,1.387.993s1.664.664,1.664,1.445v.015c0,.876-.73,1.445-1.744,1.445a2.987,2.987,0,0,1-2.087-.817" transform="translate(-339.418 -340.086)"/><path class="b" d="M478.39,342.713V342.7a2.031,2.031,0,0,0-2.014-2.108,2.007,2.007,0,0,0-2,2.094v.014a2.031,2.031,0,0,0,2.014,2.109,2.007,2.007,0,0,0,2-2.094m-4.612,0V342.7a2.605,2.605,0,1,1,5.21-.014v.014a2.605,2.605,0,1,1-5.21.015" transform="translate(-357.056 -340.057)"/><path class="b" d="M505.4,340.314h.54l3.218,4.094v-4.094h.562v5.108h-.46l-3.3-4.189v4.189H505.4Z" transform="translate(-377.871 -340.226)"/><path class="b" d="M537.555,343.483l-1.16-2.605-1.168,2.605Zm-1.422-3.277h.539L539,345.351h-.62l-.6-1.35H535l-.605,1.35H533.8Z" transform="translate(-396.563 -340.155)"/><path class="b" d="M564.768,340.314h.577v4.576h2.875v.533h-3.452Z" transform="translate(-416.943 -340.226)"/><rect class="b" width="0.577" height="5.108" transform="translate(156.774 0.088)"/><path class="b" d="M609.142,345.034l3.306-4.2h-3.2v-.518h3.985v.387l-3.313,4.2h3.313v.518h-4.094Z" transform="translate(-446.148 -340.225)"/><path class="b" d="M639.905,343.483l-1.16-2.605-1.168,2.605Zm-1.423-3.277h.54l2.328,5.145h-.62l-.6-1.35h-2.78l-.606,1.35h-.591Z" transform="translate(-463.927 -340.155)"/><path class="b" d="M668.89,344.89a1.977,1.977,0,0,0,2.116-2.007v-.015a1.988,1.988,0,0,0-2.116-2.021h-1.2v4.043Zm-1.773-4.576h1.773a2.546,2.546,0,0,1,2.715,2.54v.014a2.557,2.557,0,0,1-2.715,2.554h-1.773Z" transform="translate(-484.305 -340.226)"/><path class="b" d="M698.117,343.483l-1.16-2.605-1.168,2.605Zm-1.423-3.277h.54l2.328,5.145h-.62l-.6-1.35h-2.78l-.606,1.35h-.591Z" transform="translate(-502.24 -340.155)"/></g></g></svg>